<?xml version="1.0" encoding="UTF-8"?><svg id="Layer_1" xmlns="http://www.w3.org/2000/svg" viewBox="0 0 150 150"><path id="Path_8363" d="m115.4,45.91c-.22-.83-.5-2.11-.87-3.38-1.03-3.61-10.43-12.28-13.3-13.12-2.08-.74-4.19-.67-4.19-.67,0,0-1.2,2.87-1.09,8.59.09,1.1.42,2.17.96,3.13,3.34,5.54,8.74,7.83,14.74,9.1,2.55.48,3.73-.58,3.74-3.65h0Z" fill="#fff"/><path id="Path_8364" d="m111.56,56.83c-8.83-6.26-20.78-4.43-25.98,7.44,10.35,4.49,20.83,3.32,25.98-7.44Z" fill="#fff"/><path id="Path_8365" d="m67.31,42.94c-2.46-.78-4.7-1.69-7.11-2.23-7.24-1.55-14.62,1.88-18.1,8.41-1.35,2.52-.56,4.45,2.08,4.7,9.24.58,18.27.5,23.13-10.89Z" fill="#fff"/><path id="Path_8366" d="m88.75,51.61c-8.6-7.33-22.1-4.07-24.95,5.75,7.31,5.92,19.22,3.22,24.95-5.75Z" fill="#fff"/><path id="Path_8367" d="m50.69,16.58c-1.03,12.81,6.26,17.84,19.18,19.43.41-10.41-9.08-20.18-19.18-19.43Z" fill="#fff"/><path id="Path_8368" d="m89.9,40.74c1.77-9.74-6.7-19.1-16.66-19.87-2.77,12.91,6.14,21.94,16.66,19.87Z" fill="#fff"/><path id="Path_8369" d="m45.63,35.89c1.41.27,2.76.33,3.13-1.38s-.45-2.76-2.18-3.24c-9.4-2.68-18.79-5.39-28.28-8.14-1.21,3.32-.14,4.38,1.94,5.09,3.38,1.16,7.19,1.47,9.71,4.54.36.44,1.22.47,1.88.6l13.8,2.54Z" fill="#fff"/><path id="Path_8370" d="m134.3,54.71c-1.57-1.35-15.39-4.96-17.88-3.71-.58,2.21-1.05,4.08-1.57,5.98,2.63.94,16.07,8.14,20.01,3.32.39-2.85.24-4.93-.56-5.59h0Z" fill="#fff"/><path id="Path_8371" d="m41.61,17.77c-4.42-1.08-8.91-1.82-13.92-2.77.5,2.35.81,3.84,1.14,5.34,5.09,1.21,9.94,3.04,15.47.27-1.02-1.11-1.69-2.6-2.69-2.83h0Z" fill="#fff"/><path id="Path_8372" d="m38.82,43.67l-16.24-3.95c2.05,5.36,3.98,6.72,8.91,7.25,2.76.3,5.58.78,7.33-3.3Z" fill="#fff"/><path d="m126.98,76.79h0c-.68-.51-1.61-.57-2.35-.15l-.28.17c-5.21,2.16-63.09,1.9-98.66,1.21h-1.39l-.3,1.36c-.45,2.12-.7,4.28-.75,6.45-3.52.47-5.59,1.13-5.53,2.07,1.3,1.39-2.49,46.4,2,46.4.1.02.2.02.3,0,.36-.33,3.13-.45,7.45-.45,13.3,0,41.62,1.16,63.52,1.16,16.65,0,29.58-.67,29.39-3.02-.24-.84-.33-1.71-.27-2.58h.19c2.1-.02,4.19-.2,6.26-.52,1.39-.28,1.91-1.71,2.26-3.23,1.5-7.3,2.35-45.74-1.85-48.86Zm-20.71,30.98c.19.06.37.14.48.3.19.3.06.72,0,1.04-.09.51.06.91.05,1.41-.01.49-.42.85-.7,1.25-.17.24-.3.52-.51.73-.43.44-1.36.32-1.91.19-.68-.17-2.03-.67-2.32-1.37-.51-1.23.21-2.85,1.16-3.68.44-.39,1.04-.63,1.63-.61.67.02,1.17.47,1.79.65.1.03.22.06.32.09Zm9.89.39c-.23,7.11-.45,14.22-.68,21.34-30.86,3.05-61.97-.37-92.98.05-.82-13.28-.76-26.61.19-39.88,30.73-2.95,61.7.33,92.57-.1.31,0,.53,8.21.53,8.98,0,1.57-.04,3.14-.11,4.71-.05,1.06.31,2.1.3,3.17l.18,1.74Zm-7.48-1.2c-.06-.09-.12-.18-.19-.27-.86-1.12-2.09-1.27-3.32-1.73-.33-.13-.62-.37-.99-.4-.41-.03-.88.06-1.28.14-.57.22-1.09.53-1.57.91-.51.29-.97.66-1.35,1.11-.32.48-.55,1.01-.67,1.57-.23.55-.35,1.13-.36,1.72-.01.6.07,1.21.25,1.79.2.56.5,1.09.87,1.57.34.44,1.03.74,1.51,1,.58.32,1.22.55,1.87.68.58.12,1.19.15,1.77.03,1.64-.34,3.16-1.85,3.88-3.31.44-.9.33-1.68.16-2.64-.14-.79-.14-1.46-.59-2.16Zm16.08,17.87v-.06c-1.7.21-2.96.33-4.68.36.2-12.53,1.8-39.62-1.72-39.62-.1-.02-.21-.02-.31,0-.36.33-3.13.45-7.45.45-13.28,0-41.61-1.14-63.52-1.14-8.06,0-14.61.16-19.86.58.05-1.35.19-2.08.42-3.41,5.57.11,25.98.46,46.89.49h2.41c35.01,0,44.61-.91,47.8-1.83,1.97,6.47,2.1,39.01.02,44.19Z" fill="#fff"/><path id="Path_8381" d="m81.6,100.06c-.48-.59-1-1.15-1.57-1.66l-1.14-1s-.89-.67-1.36-.97c.06,0-.72-.8-1.17-.72-2.26-1.17-4.76-1.77-7.3-1.77-.78,0-1.56.05-2.33.17-5.66.81-10.45,4.6-12.53,9.93-.57,1.63-.89,3.33-.94,5.06-.3,8.12,5.34,15.27,13.31,16.87.8.13,1.61.21,2.43.22h.19c4.93-.05,12.31-5.87,12.31-5.87l1.34-2.75.75-1.94c.31-.85.74-2.62.74-2.62l.3-1.39v-.67l.09-.83c.05-1.34-.06-2.68-.33-3.99-.23-1.08-1.03-3.13-1.03-3.13l-.41-.86c-.24-.45-.78-1.32-.78-1.32l-.54-.74Zm-3.92,17.75c-2.04,2.64-5.18,4.19-8.51,4.21h-.15c-.59-.02-1.18-.07-1.77-.16-5.95-1.25-10.14-6.61-9.91-12.68.04-1.3.28-2.59.71-3.82,1.57-3.93,5.14-6.7,9.33-7.25.58-.09,1.16-.13,1.74-.13,5.41-.08,10.12,3.69,11.24,8.98.78,3.84-.2,7.83-2.67,10.87h0Z" fill="#fff"/><path id="Path_8386" d="m38.74,107.57c-.21-.73-.9-1.49-1.54-1.89-.36-.23-.76-.31-1.13-.49-.61-.3-1.16-.63-1.85-.69s-1.41.09-2.05.38c-3.08,1.4-4.51,5.67-2.26,8.4,1.89,1.74,4.97,2.43,7.16.85.54-.39.69-1.1,1.08-1.61.3-.4.74-.76.89-1.27.17-.57.05-1.3-.08-1.87.03-.61-.05-1.23-.22-1.81Zm-2.63,4c-.1.27-.25.53-.46.78-.45.55-.91.55-1.55.51-.48-.03-.95-.11-1.39-.32-.4-.19-1.22-.54-1.43-.95-.45-.9-.36-1.97.08-2.85.4-.78,1.33-1.84,2.29-1.81.39.01.74.22,1.09.4.34.17.69.32,1.04.43.27.09.51.18.59.48.04.18.02.38.01.57-.05.98.06,1.89-.28,2.75Z" fill="#fff"/></svg>