<?xml version="1.0" encoding="UTF-8"?><svg id="Layer_1" xmlns="http://www.w3.org/2000/svg" viewBox="0 0 150 150"><polygon points="119.87 90.3 119.86 90.3 119.87 90.31 119.87 90.3" fill="#fff"/><polygon points="98.53 117.18 98.54 117.18 98.53 117.17 98.53 117.18" fill="#fff"/><polygon points="83.89 128.42 83.9 128.42 83.89 128.41 83.89 128.42" fill="#fff"/><path d="m104.71,105.74s-.05-.06-.07-.09c0,0,0,0,0,0l.08.09Z" fill="#fff"/><path d="m50.2,110.64c4.05-.59,7.13-3.09,8.72-7.13,1.93-4.9,3.05-9.86.78-14.9-.84-1.87-1.99-3.77-3.46-5.16-1.82-1.73-2.11-3.64-2.03-5.89.29-7.65.58-15.31.77-22.96.11-4.41.12-8.83-.03-13.23-.06-1.78-.44-3.63-1.1-5.28-.67-1.68-1.52-3.59-2.87-4.66-5.64-4.47-14.31-1.25-15.68,5.88-.65,3.36-.85,6.9-.65,10.32.35,6.09-.28,12.2.33,18.26.4,3.99-.56,8.05.81,11.97.29.82.04,1.83.04,2.87-2.88,2.54-5.68,4.87-6.79,8.45-1.48,4.79-1.32,9.66.82,14.17,1.64,3.45,4.59,6.47,8.15,7.31,3.86.91,8.18.58,12.19,0Zm-18.64-18.66c1.18-2.85,2.1-5.84,4.9-7.74,1.25-.85,1.78-2.01,1.71-3.9-.18-4.37.47-8.76.51-13.15.04-3.54-.47-7.08-.47-10.62,0-3.92.31-7.83.44-11.75.04-1.12.15-2.33-.2-3.35-.89-2.55.11-4.63,1.54-6.45,1.06-1.34,2.55-2.21,4.54-1.2,1.41.72,3.04.97,4.53,1.57.56.22.98.81,1.96,1.67-2.65.42-4.79.76-7.5,1.2-.19.03-.27.29-.11.4,2.78,1.92,5.25.48,7.65.97.25.92.6,4.85.6,4.85,0,0-2.87.42-4.31.73-2.04.44-3.24.72-4.71,1.43-.24.12-.11,1.12.1,1.3,1.11.93,2.45.63,3.75.44,1.49-.21,2.96-.56,4.45-.66.34-.02,1.35,1.43,1.35,1.43l.25,2.51s-1.32,1.75-1.82,1.84c-1.58.27-3.21.24-4.81.41-.99.11-1.98.3-3.14.51-.29.05-.39.42-.17.61,1.69,1.47,3.68,1.64,9.32,1.22-.65,2.01-.14,2.42-.45,4.41-.46.29-.96.77-1.37.83-3.14.49-4.46.34-7.29,1.36-.26.09-.3.43-.08.59,1.28.94,1.57,2.02,4.19,1.7,1.59-.2,4.44-.1,4.44-.1l.15,5.26s-5.59-.59-8.19.7c-.34.17-.33.66.02.82,2,.94,7.98,1.17,7.98,1.17v3.66s-.27,1.03-1.33,1.2c-2.37.38-5.65-.15-7.17,1.15.22,1.28,3.96,1.83,7.04,1.83,1.99,2.08,3.81,4.11,5.77,5.98,1.35,1.29,2.02,2.82,2.17,4.59.31,3.63.91,7.31-2.06,10.35-.95.97-1.46,2.36-2.36,3.39-2.38,2.71-5.42,3.58-8.94,2.9-3.06-.59-6.23-.68-8.85-2.81-3.26-2.65-6.27-7.82-4.02-13.26Z" fill="#fff"/><path d="m44.84,23.89c.56-.05,1.46-.54,1.54-.97.36-1.9.62-3.85.64-5.79.02-1.6-1.25-1.95-3.09-2.13-.11,2.76-.27,5.32-.27,7.89,0,.36.8,1.04,1.18,1Z" fill="#fff"/><path d="m22.96,37.46c-2.42-.14-2.6.14-2.66,3.47,3-.31,6.2,1.14,9.08-1.75-2.13-1.39-4.28-1.6-6.42-1.72Z" fill="#fff"/><path d="m33,25.32c-1.06-.88-2.1-1.79-3.12-2.71-1.79-1.62-1.96-1.59-3.62,1.24,2.53,1.64,3.94,4.67,7.38,4.65.75-1.4.38-2.35-.64-3.18Z" fill="#fff"/><path d="m58.87,28.72c1.61-1.57,3.74-2.78,4.38-5.4-1.02-1.3-2.05-1.42-3.06-.4-1.21,1.22-2.4,2.46-3.4,3.84-.34.47-.08,1.38-.09,2.09.74-.03,1.78.24,2.17-.14Z" fill="#fff"/><path d="m67.78,40.98c1.26-.09,1.82-1.19,1.7-2.64-3.66-1.06-6.8-.16-10.51,2.2,3.41.97,6.13.64,8.81.45Z" fill="#fff"/><path d="m48.06,97.91c1.71-1.89,2.03-4.26.19-5.48-2.09-1.39-2.44-3.1-2.38-5.27.04-1.26-.06-2.55-.27-3.79-.08-.49-.65-.91-1-1.35-.24.05-.49.11-.73.16-.26,2.75-.51,5.51-.75,8.06-.69.83-1.49,1.67-2.14,2.61-1.2,1.75-.65,4.06,1.22,5.49,2.06,1.57,4.19,1.42,5.85-.42Z" fill="#fff"/><path d="m131.94,74.01c-.51-9.82-3.4-19.51-8.74-27.86-10.22-15.97-28.8-26.25-47.76-26.41-1.04,0-2.52.72-1.97,1.6.22.35.67.46,1.08.53,5.96,1.08,11.91,2.15,17.87,3.23-.75,2.33-2.27,4.32-3.31,6.53s-1.58,4.93-.32,7.02c1.15,1.91,3.43,2.77,5.56,3.42,7.02,2.17,14.23,3.68,21.53,4.53,1.18.14,2.43.28,3.41.95.93.64,1.5,1.67,2.04,2.66,1.63,3,3.25,6.01,4.88,9.01,1.01,1.88,1.95,4.43.42,5.92-1.19,1.16-3.26.81-4.52-.26s-1.95-2.65-2.69-4.14c-1.6-3.22-3.64-6.22-6.06-8.89-.6-.66-1.25-1.32-2.08-1.64-1.1-.42-2.33-.18-3.51-.21-3.87-.11-7.01-3.18-10.76-4.16-3.33-.87-6.93,0-9.89,1.76-2.96,1.75-5.35,4.31-7.51,6.99-2.54,3.15-4.92,7.08-3.93,11,.49,1.93,1.75,3.57,3.12,5.01,1.93,2.03,4.44,3.89,7.23,3.68,1.85-.14,3.67-1.18,5.45-.69,1.99.55,2.99,2.75,3.52,4.74,1.16,4.39,1.27,8.98,2,13.47.72,4.48,2.18,9.07,5.44,12.23.65.63,1.39,1.21,2.27,1.44,1.72.45,3.48-.54,4.84-1.7,9.61-8.22,8.6-24.78,18.67-32.45,1.52,5.41.42,9.91.03,15.23-.23,3.18-1.09,6.17-2.15,9.18-4.08,11.65-13.58,18.95-22.44,26.93-.87.78-1.75,1.57-2.81,2.07-1.87.88-4.05.73-6.11.56-2.67-.22-5.47-.48-7.71-1.96-1.41-.93-2.54-2.31-4.09-2.99-1.35-.59-2.89-.59-4.34-.36-4.41.69-8.59,3.36-13,2.71-2.47-.36-4.75-1.76-7.25-1.78-2.89-.03-5.46,1.79-7.62,3.71-.41.36-.85.75-1.39.8-.57.05-1.1-.28-1.58-.61-2.67-1.81-5.34-3.62-8-5.43-.7-.47-1.43-.96-2.27-1.07s-1.81.31-2.04,1.12c4.06,3.42,8.18,6.87,12.95,9.2,4.25,2.08,8.89,3.2,13.49,4.3,3.55.85,7.12,1.71,10.77,1.96,2.92.2,5.85,0,8.75-.39,12.02-1.65,23.87-6.8,32.83-15.05,12.54-11.54,18.59-28.7,17.72-45.47Zm-28.76-33.67s-4.2-1.19-8.39-1.65c-.76-.08-1.71-.14-2.27-.74-.36-.38-.47-.91-.58-1.42-.21-1.04-.38-1.67.16-2.62.43-.76,1.02-1.42,1.61-2.05.79-.85,2.23-2.93,2.41-3.21.64-.99,1.63-.85,2.62-.36,2.35,1.15,5.04,1.89,6.99,3.52,2.31,1.92,4.84,3.71,7.16,6.36.81.93,1.78,1.73,2.41,2.8.35.61.69,1.16,1.12,1.71-1.17.27-2.81-.15-3.98-.33-1.45-.22-2.89-.5-4.32-.81-1.65-.36-3.3-.75-4.93-1.19Zm18.58,33.87c-1.04,1.35-1.98,2.77-2.97,4.15-.52.72-1.26,1.36-1.56,2.21-1.26,3.54-1.83,7.37-3.38,10.81-1,2.24-2.56,4.25-3.61,6.49-.49,1.05-.51,2.1-1.26,2.96s-1.75,1.61-2.9,1.49c-1.5-.15-2.43-1.72-2.99-2.95-.36-.78-.82-1.52-1.15-2.31-.11-.27-1.22-6.31-1.15-7.11.24-2.83-.29-5.55-.99-8.21-.42-1.6-.37-3.58-.78-4.33-.73-1.31-.68-2.98-2.58-3.65-.74-.26-1.18-1.27-1.45-1.95-.14-.34-.27-.73-.58-.93-.43-.27-.97-.09-1.44-.11-2.57-.16-5.15-.34-7.73-.35-3.41-.02-4.31-.55-4.96-3.84-.38-1.92-.78-3.9-.66-5.82.07-1.19,1.14-2.31,1.7-3.49,2.24-4.75,6.88-6.13,11.2-7.92.4-.17,1.01.15,1.52.27,2.72.6,5.44,1.05,8.01,2.16,0,.28,3.67,1.58,4.09,1.76,1.32.57,2.92,1,4.14,1.76.33.2.61.51.69.88.07.32,0,.7.21.96.16.2.42.27.67.35,1.41.45,2.34,1.54,3.17,2.7.83,1.18,1.53,2.49,2.06,3.83.34.87.73,1.72,1.12,2.57.19.41.97,1.48.86,1.93-.01.05-.04.11-.03.16.02.09.12.14.21.17,1,.35,2.03.64,3.05.93.15.04,1.91.42,1.93.54.16,1.41-1.05,2.2-1.84,3.15-.2.25-.4.5-.6.75Zm-67.96,53.89c-.2-.27.19-1.34.24-1.64.1-.51.41-1.18.41-1.69.02-.09.04-.19.1-.25.08-.08.2-.11.31-.13,1.27-.22,2.53-.4,3.83-.27.66.07,1.32.21,1.94.43s1.16.64,1.76.87c1.56,1.01,3.96.77,5.7.56,1.63-.19,3.24-.58,4.81-1.05,1.27-.37,2.7-1.02,3.99-.4,1.19.58,2.47.87,3.78.98.69.06,1.38.09,2.07.1.6,0,1.34-.19,1.9.11.29.16.49.44.68.71.87,1.26,1.46,2.55,2.16,3.88-.05-.1-2.78.48-3.07.52-1.06.15-2.12.28-3.18.37-2.11.19-4.22.28-6.34.26-4.23-.04-8.45-.49-12.61-1.27-2.75-.51-5.45-1.23-8.16-1.93-.12-.03-.25-.07-.34-.17Z" fill="#fff"/></svg>