<?xml version="1.0" encoding="UTF-8"?><svg id="Layer_1" xmlns="http://www.w3.org/2000/svg" viewBox="0 0 150 150"><path d="m77.96,50.64c-.87-3.08-3.33-1.8-5.09-1.67-2.08.16-3.53,1.62-3.64,3.84-.21,4.44-.7,8.93-.32,13.33.96,11.13,2.32,22.22,3.55,33.32.17,1.49.55,2.96.87,4.64,2.72-.94,2.84-2.69,2.94-4.45.21-3.83.4-7.66.63-11.48.3-5.11.69-10.21.94-15.32.23-4.47.28-8.94.5-13.41.11-2.19.43-3.68.04-6.56l-.42-2.25Z" fill="#fff"/><path d="m139.66,127.19c-3.17-6.27-6.3-12.56-9.69-18.71-5.53-10.02-11.3-19.9-16.89-29.89-5.31-9.48-10.57-18.99-15.74-28.54-3.2-5.91-6.15-11.95-9.32-17.87-2.4-4.48-5.04-8.84-7.45-13.31-1.35-2.5-3.4-3.77-6.12-3.87-2.42-.1-3.69,1.57-4.67,3.52-1.93,3.87-3.66,7.85-5.84,11.57-10.89,18.64-22.17,37.05-32.77,55.85-7.44,13.21-14.04,26.89-20.94,40.4-1.03,2.03-.64,3.97,1.09,5.75,2.31,2.39,5.13,2.35,8.02,2.19,4.45-.24,8.89-.8,13.35-.87,8.93-.14,17.87-.12,26.8-.02,9.38.11,18.76.48,28.15.59,5.22.06,10.46-.39,15.68-.24,9.1.26,18.18.81,27.28,1.24.01.09,3.78-.16,5.62-.57,3.63-.8,5.14-3.91,3.46-7.22Zm-37.16,2.82c-6.97-.53-14.04.27-21.07.29-4.63.02-9.25-.42-13.88-.42-3.67,0-7.33.42-11.01.54-2.24.07-4.49-.03-6.72-.15-4.91-.26-9.82-.69-14.73-.82-4.34-.12-8.7.09-13.04.1-.82,0-1.66-.05-2.48-.18-4.82-.73-5.95-2.73-3.74-6.43,4.42-7.41,8.94-14.76,13.16-22.27,3.13-5.56,5.69-11.44,8.82-17,2.35-4.18,5.31-8,7.79-12.11,1.54-2.56,2.56-5.43,4.06-8.02,3.99-6.93,8.17-13.75,12.16-20.69,2.14-3.72,4-7.61,6.08-11.37l5.35-7.18c.58-.3,1.42-.96,1.98-1.43.3-.25.75-.12.88.25.45,1.36.9,2.72,1.35,4.07.83,2.49,2.53,4.43,4.05,6.56.98,1.37,1.96,2.73,2.95,4.1,3.5,4.87,6.39,9.89,9.02,15.27,1.06,2.16,2.07,4.35,3.08,6.54.73,1.58,1.54,3.14,2.19,4.75.59,1.46,1.46,2.16,2.41,3.4.87,1.13,1.56,2.46,2.32,3.66,1.94,3.06,3.82,5.88,5.22,9.24.73,1.75,1.49,3.49,2.37,5.17.78,1.5,1.65,2.95,2.66,4.31,1.03,1.38,2.22,2.69,2.99,4.25s1.09,3.36,1.85,4.96c.97,2.04,1.88,4.11,3.05,6.05.6.99,1.26,1.93,2,2.82.48.58,1.54,1.26,1.75,1.96.09.29.02.61.03.92.02.54.27,1.03.52,1.51,1.27,2.43,2.59,4.83,3.91,7.23.7,1.29,1.09,2.81,1.7,4.18.24.53.96,2.01.77,2.9-.93,4.26-22.64,3.6-29.81,3.06Z" fill="#fff"/><path d="m73.85,108.65c-2.55.22-5.18,2.97-5.18,5.43,0,2.94,2.23,5.23,5.06,5.19,2.33-.03,4.66-2.69,4.59-5.24-.08-2.72-2.43-5.56-4.47-5.39Z" fill="#fff"/></svg>