<?xml version="1.0" encoding="UTF-8"?><svg id="Layer_1" xmlns="http://www.w3.org/2000/svg" viewBox="0 0 150 150"><path d="m118.58,28.94v-.06c-.1-2.45-.19-4.56-.1-5.97.28-4.69-.35-7.32-4.43-7.81-2.88-.34-7.65.25-12.69.87l-.16.02c-2.23.27-4.53.56-6.76.77-2.72.26-4.05,1.42-3.96,2.44.11,1.21,2.15,2.76,6.37,2.41,4.33-.36,11.1-.87,11.17-.87.34-.03.69.16.85.47.16.31.13.69-.09.97-.13.16-3.18,3.96-6.86,7.42-2.11,1.98-4.66,4.48-6.37,6.19-6.14-4.29-12.76-6.88-18.78-7.21-15.87-.86-28.53,5.22-37.61,18.07-6.6,9.33-9.19,20.09-7.3,30.29,1.31,7.04,4.79,13.59,10.08,18.95,4.93,4.99,11.31,8.88,18.45,11.26,3.17,1.06,6.44,1.79,9.71,2.19.1.88.05,2.21.07,3.14.08,3.44-.63,10.17-.63,10.17,0,0-.45.29-.84.35-1.12.14-1.42.16-2.9.18-1.93.03-4.46-.12-5.88.02-.94.1-1.52.21-1.67.94-.09.45-.06,1.59.04,1.9.1.31.31.42.65.68.38.3.98.39,1.46.44,1.05.11,2.11.19,3.13.28h.16c1.44.13,3.07.26,4.68.46.51.06.89.49.89,1,0,1.5.09,3.01.18,4.47.07,1.15.13,2.11.16,3.11.02.53,0,1.1-.04,1.66-.07,1.44-.13,2.81.53,3.77.42.62,1.15,1.02,1.89,1.06.04,0,.09,0,.13,0,1.93,0,2.38-1.63,2.65-5.23.05-.6.09-1.16.16-1.64.01-.1.04-.35.08-.69l.04-.32c.28-6.48.24-6.84,1.33-6.84.75,0,2.15-.09,2.97-.08h.23c1.82.01,3.69.03,5.01-.03.63-.03,1.15-.32,1.57-.88.64-.86.89-2.22.61-3.31-.05-.2-.11-.35-.18-.42-.4-.3-1.94-.22-3.64-.11-2.48.18-7.54-.32-7.54-.32,0,0,.13-1.82.07-2.67-.05-.79-.12-1.57-.2-2.33v-.07c-.08-3.18.07-5.73.49-8.36.07,0,.14,0,.21,0,1.34,0,2.68-.06,3.99-.17,14.26-1.26,25.96-10.57,31.31-24.91,2.64-7.08,3.39-14.67,2.18-21.94-1.29-7.74-4.79-14.75-10.13-20.26-1.15-1.19-2.34-2.3-3.57-3.36,4.22-4.46,12.57-13.34,12.64-13.41.25-.27.64-.36.98-.22.34.13.57.46.57.83-.01,9.37,1.39,17.95,2.94,18,.01,0,.02,0,.03,0,.19,0,.34-.07.5-.23,1.72-1.73,1.38-10.1,1.18-15.11Zm-42.85,4.93c7.6.41,16.29,4.95,23.26,12.14,4.67,4.82,7.74,10.95,8.86,17.73,1.06,6.37.4,13.02-1.91,19.23-4.68,12.56-14.92,20.71-27.4,21.81-5.63.5-11.56-.23-17.16-2.09-13.41-4.47-22.75-14.36-25-26.46-1.66-8.93.62-18.35,6.4-26.52,7.46-10.56,17.68-15.9,30.41-15.9.84,0,1.69.02,2.55.07Z" fill="#fff"/><path d="m51.36,62.44c.27,1.94.31,2.23,1.85,2.29.08,0,.16,0,.24,0,.92,0,2.44-.1,3.94-.21,1.49-.11,3.16-.21,4.14-.21,2.33.06,7.75.23,10.37.39l9.23-.13c1.05-.04,2.06-.08,3.03-.11h.11c2.17-.07,4.04-.14,5.93-.28,2.31-.17,3.34-1.13,3.57-3.29.05-.49-.13-1.08-.31-1.69l-.04-.13c-.03-.11-.07-.21-.09-.32-.02-.06-.07-.1-.13-.11-2.2-.16-4.51-.23-7.27-.25-1.11,0-2.26-.1-3.28-.18-1.3-.1-2.65-.21-3.91-.16l-9.6.39c-.69.1-2.1.13-3.47.15-1.53.03-3.26.06-4.13.21-1.08.18-2.63.14-4.15.1-.64-.02-1.31-.04-1.95-.04-1.18,0-1.97.06-2.5.2-1.21.32-1.9.97-1.58,3.24l.02.13Z" fill="#fff"/><path d="m51.36,77.62c.27,1.88.31,2.17,1.85,2.22.08,0,.16,0,.25,0,.92,0,2.45-.1,3.95-.21,1.72-.12,3.2-.22,4.13-.2,2.21.05,7.66.22,10.37.38l9.23-.13c1.08-.04,2.13-.08,3.13-.11,2.17-.07,4.05-.13,5.94-.27,2.31-.17,3.34-1.1,3.57-3.2.05-.48-.13-1.05-.31-1.65-.05-.15-.09-.29-.14-.44-.02-.06-.07-.1-.13-.11-2.2-.15-4.51-.23-7.27-.24-1.09,0-2.2-.09-3.28-.17-1.29-.1-2.63-.2-3.92-.16l-9.6.37c-.69.1-2.1.13-3.47.15-1.53.03-3.27.06-4.14.2-1.07.18-2.55.14-4.15.09-.65-.02-1.31-.03-1.95-.03-1.18,0-1.97.06-2.5.2-1.21.31-1.9.94-1.58,3.15l.02.13Z" fill="#fff"/></svg>