<?xml version="1.0" encoding="UTF-8"?><svg id="Layer_1" xmlns="http://www.w3.org/2000/svg" viewBox="0 0 150 150"><path d="m74.5,30.54c1.1-.11,1.98-.84,2.14-1.69.71-3.76,1.23-7.6,1.27-11.42.04-3.16-1.57-4.08-5.2-4.43-.22,5.44-.53,10.5-.53,15.56,0,.71,1.58,2.05,2.32,1.98Z" fill="#fff"/><path d="m114.32,82.38c-.1.88.33,1.69.96,1.95,2.82,1.18,5.73,2.22,8.71,2.89,2.46.55,3.45-.55,4.33-3.33-4.21-1.08-8.12-2.16-12.07-2.99-.55-.12-1.86.89-1.93,1.49Z" fill="#fff"/><path d="m26.78,108.58c5.07-3.08,11.74-3.87,14.8-10.47-4.73-.07-8.69,1.53-12.54,3.24-4.36,1.94-4.48,2.49-2.26,7.23Z" fill="#fff"/><path d="m117.91,60.39c3.97-1.99,8.69-2.97,11.48-7.5-1.14-3.05-2.39-3.06-4.89-1.76-3,1.56-6,3.18-8.71,5.17-.93.68-1.14,2.17-1.59,3.5,1.41.39,2.74,1.07,3.71.59Z" fill="#fff"/><path d="m26.83,84.19c2.52-.51,5.07-1.06,7.47-1.95.82-.3,1.29-1.35,1.91-2.23-.95-.58-1.78-1.36-2.59-1.21-3.33.62-6.99.34-9.99,3.06.19,2.48,1.11,2.75,3.21,2.32Z" fill="#fff"/><path d="m36.18,59.01c.85-3.02-.82-3.44-3.13-4.62-2.42-1.24-4.8-2.56-7.16-3.9-4.14-2.36-3.89-3.47-5.89,2.68,5.57,2.09,9.57,7.33,16.18,5.84Z" fill="#fff"/><path d="m104.17,37.19c1.52-1.71,3.1-3.37,4.69-5,2.8-2.87,3.65-2.43-.94-5.36-2.88,4.09-7.99,6.24-8.18,11.94,2.28,1.33,2.98.06,4.42-1.57Z" fill="#fff"/><path d="m65.47,128.4s-.34,2.4-.34,3.11c0,4.5,1.25,3.37,13.5,3.37,5.09,0,5.46-.28,5.6-6.78-5.37.52-18.76.31-18.76.31Z" fill="#fff"/><path d="m108.76,72.2c.22-8.76-2.6-18.77-9.32-24.75-6.43-5.71-14.83-9.11-23.4-9.64-17.13-1.06-32.4,11.23-35.2,28.21-.3,1.82-.44,3.67-.42,5.52.1,8.71,3.89,18,10.58,23.73,4.95,4.24,8.23,10.12,8.8,16.62.1,1.1,1.05,1.94,2.15,1.86,7.21-.5,19.57-.42,24.68-.37,1.31.01,2.44-.9,2.7-2.19.17-.82.33-1.57.36-1.66.95-3.4,2.52-6.62,4.48-9.55,1.92-2.86,4.52-5.13,6.86-7.63,2.35-2.52,4.11-5.27,5.41-8.48,1.45-3.59,2.23-7.6,2.33-11.68Zm-4.73.55c-.38,4.26-1.82,8.38-4.29,11.87-1.27,1.8-2.82,3.26-4.39,4.79-1.71,1.66-3.01,3.63-4.35,5.58-1.55,2.26-3.29,4.54-4.49,7.01-.96,1.97-1.75,4.25-3.77,5.39-2.54,1.44-7.73,1.24-10.64,1.22-2.32-.02-5.31.24-6.92-1.77-1.05-1.3-1.51-3.03-2.14-4.55-.76-1.84-1.56-3.67-2.57-5.39-1.57-2.69-3.69-4.49-6.01-6.5-2.99-2.6-5.36-5.85-7.15-9.36-1.86-3.63-3.4-7.71-3.47-11.84-.13-8.86,6.64-16.15,12.84-21.67,4.84-4.3,10.86-6.67,17.58-6.19,6.98.51,13.28,2.13,18.88,6.2,6.82,4.96,10.65,13.24,10.98,21.57.05,1.24.02,2.45-.09,3.64Z" fill="#fff"/><path d="m103.4,100.31c3.7,5.93,8.13,9.05,12.3,12.3,1.96,1.53,4.24.68,5.99-1.61-3.96-6.39-9.74-9.22-18.28-10.69Z" fill="#fff"/><path d="m50.58,38.04c-1.74-6.09-5.77-9.72-12.35-12.88,1.63,5.66,4.5,9.21,7.13,12.81,1.23,1.69,3.28,1.53,5.22.08Z" fill="#fff"/><path d="m61.9,117.48s-.47,2.63-.47,3.4c0,4.92,1.74,3.69,18.73,3.69,7.07,0,7.58-.31,7.77-7.43-7.46.57-26.03.34-26.03.34Z" fill="#fff"/></svg>