<?xml version="1.0" encoding="UTF-8"?><svg id="Layer_1" xmlns="http://www.w3.org/2000/svg" viewBox="0 0 150 150"><path d="m134.82,47.14c-.19-.08-.43-.24-.63-.25-1.75-.1-2.63.17-2.63.17-1.52-.12-3.2.39-4.7.58-1.72.22-3.44.44-5.12.87-1.53.38-2.95,1.06-4.41,1.64l-.36-.62c-.06-3.01-1.31-5.45-2.07-8.32-1.31-4.96-1.62-10.14-3-15.1-.22-.81-.47-1.64-.96-2.32-1.92-2.7-5.54-.72-7.56.72-2.09,1.49-4.16,3.01-6.26,4.48-.65.45-2.78,2.5-3.59,2.61-.7-1.04-1.41-2.05-2.06-3.1-1.42-2.28-3.74-3.91-6.28-4.75-1.27-.42-2.62-.65-3.96-.65-.34,0-3.45.61-3.52.53-.47-.5-.9-.98-1.34-1.45-.35-.37-.64-.84-1.06-1.08-3.17-1.83-6.88-2.77-10.4-1.56-.86.3-1.72.66-2.42,1.24-1.08.89-1.28,2.12-1.72,3.36-.8-.07-1.45-.09-2.1-.19-4.02-.63-12.34.99-12.64,6.36-.02.41-.12.82-.21,1.35-3.54-.49-6.77-.03-9.2,2.62-2.46,2.67-3.1,5.82-1.74,9.28-.21-.09-1.41.03-1.5.06-.7.23-1.47.98-2.07,1.42-1.41,1.06-2.73,2.23-3.95,3.51-2.43,2.56-4.52,5.5-5.82,8.79-1.11,2.8-2.42,7.41-.77,10.23.14.24-.03.66-.06,1.11-2,.04-3.88.18-5.66,1.28-.03.49-.12,1.07-.08,1.64.55,7.75,1.95,15.25,5.1,22.4.55,1.25,1.14,2.48,1.78,3.69,2.64,5.03,5.88,9.79,9.76,13.95,4.44,4.76,10.34,8.75,15.97,11.99.73.42,1.54.72,2.26,1.05.01.24.09.43.02.52-.66.91-.53,1.77-.12,2.78,1.58,3.94,6.13,2.48,9.61,2.58,3.49.11,6.99.2,10.49.25,5.32.09,10.65.09,15.98.08,3.28,0,11.76,1.21,11.48-4.38-.05-1.03.64-1.74,1.62-2.13,7.69-3.1,15.1-9.54,20.35-15.92,5.54-6.74,9.59-14.73,11.6-23.22.88-3.71.91-7.46,1.6-11.17.04-.21,0-.44-.02-.66-.22-3.02-2.32-3-4.54-3.86.69.27,2.65-3.71,2.83-4.16,0,0,1.34-3.14,2.26-6.38.52-1.39.87-2.84,1.14-4.3.15-.81,1.47-7.23.71-7.56Zm-26.06-17.58c.55,1.45,1.01,2.72,1.29,4.02.31,1.43.45,2.89.75,4.32.41,1.93.83,3.85,1.37,5.75.57,2.02.97,4.1,1.89,6.02,0,0,.94,1.33-.81,1.67-.16.08-.29,0-.44-.05-.37-.15-.74-.33-1.13-.38-2.78-.37-5.73-1.05-8.54-.85-.95.07-1.89.14-2.83.24.56-1.81.91-3.67,1.67-5.42,1.15-2.62,2.44-5.19,3.65-7.79.38-.81.69-1.66.98-2.52.59-1.74,1.14-3.5,2.14-5.02Zm-4.03,27.4c-.54.69-2.16,2.35-2.66,3.06-.45-.42-1.53-1.49-2.02-1.94.13-.08.96-.22,1.09-.25.38-.1.63-.45,1.02-.46.42,0,.78-.01,1.15-.17.07-.03,1.25-.27,1.42-.23Zm-25.38,11.65c-.66.4-1.43.55-2.23.56-2.04.02-4.08.02-6.12,0-.71,0-1.47.09-2.23-.48.38-3.18.95-6.4,2.17-9.43.66-1.64,1.4-3.34,2.61-4.68.86.27,1.05.95,1.32,1.52,1.37,2.89,2.7,5.8,4.06,8.7.41.87.79,1.7.22,2.67-.14.24.1.69.18,1.13Zm-.49-11.8c-.74-1.66-1.27-3.42-1.93-5.13-.23-.6-.16-1.12.12-1.68.85-1.66,2.2-2.99,4.26-4.06.2.27.47.53.6.84,1.01,2.59,2.54,4.94,3.37,7.6.61,1.95,1.32,3.87,1.88,5.83.5,1.76,1.07,3.48,1.92,5.23-.22.59-1.02,2.78-1.29,3.51-.02.35-.19.68-.38.97-.83,0-1.67-.07-2.58-.11-2.03-4.39-4.05-8.68-5.98-13Zm17.87,2.24c.39.38.58.88,1.05,1.17.13.08.22.22.34.32.47.45.94.89,1.41,1.34l-.97,2.79c-.8,1.57-1.55,3.13-1.85,4.99-.83,0-1.62-.02-2.41,0-1.16.04-2.32.1-3.48.15.48-1.22,1.76-3.36,2.32-4.29.37-.62.73-1.27.99-1.95.62-1.64,1.4-3.22,2.21-4.77.16.15.29.25.39.26Zm9.59-4.04c-.53.12-.91.19-1.44.17-.3,0-1.24.3-1.54.27-.91-.09-1.8.48-2.69.59-.12.02-.26-.02-.37.03-.75.34-.71.3-1.49.47-.56.12-1.96-.91-2.51-1.04-.05-.01-.09-.08-.16-.15.3-.31.6-.57,1.06-.67,1.26-.28,2.51-.65,3.77-.94.75-.17,1.52-.24,2.28-.36.68-.11,1.37-.03,2.03-.12.63-.09,3.37-.05,4-.03-.37.21-1.53,1.59-1.53,1.59,0,0-1,.1-1.42.19Zm-.74-27.93c.37,1.41-.1,3.2-1.4,5.09-.41-1.33-.72-2.34-1.06-3.44.67-.78,1.51-1.26,2.45-1.66Zm-11.16,8.01c.08-.26.44-.58.95-.94,1.68-1.19,4.93-2.76,4.68-3.34.23.53.49,1.02.65,1.55.41,1.33.75,2.67,1.16,4,.39,1.26.2,2.46-.33,3.62-.78,1.71-1.6,3.41-2.41,5.1-.12.24-.32.44-.71.96-.89-2.09-1.71-3.8-2.36-5.56-.4-1.09-1.97-4.27-1.62-5.37Zm-3.86,2.5c.3-.19.63-.32,1.04-.52.28.61.56,1.12.75,1.66.63,1.79,1.22,3.59,1.83,5.39.57,1.65,1.12,3.31,1.72,4.95.31.86.38,1.66.18,2.48-1.16.29-3.15.89-3,1.67.09.43.55,1.4,1.14,2.43-.38.85-.76,1.7-1.15,2.54-.49,1.05-.99,2.1-1.92,3.09-.52-1.34-.99-2.55-1.47-3.75-1-2.51-2-5.01-3-7.52-.32-.81-.63-1.63-.95-2.45-.43-1.08-.81-2.17-1.52-3.14-.87-1.2-.23-2.09.88-2.73,2.01-1.15,3.53-2.89,5.48-4.11Zm-52.37-.96c.35-.52.9-.95,1.74-1.23,1.74-.58,3.02-1.21,4.85-.8,1.58.35,3.21,1.16,4.7.04.36-.26.67-.6.85-1.01.69-1.57-.06-3.35.96-4.91.93-1.42,2.54-1.83,4.16-1.83.83-.03,1.66.08,2.49.18,1.89.24,6.69,1.39,6.69-2.14.22-.79.34-1.81,1.12-2.05.91-.28,1.43-.14,2.31-.65,1.31-.76,3.23.57,4.49,1.01,1.73.61,1.63,1.94,2.48,3.26,1.12,1.76,2.63,2.26,3.81.43,1.15-1.79,4.68-.76,6.25-.02,1.98.94,3.33,2.7,4.43,4.54,1.2,2,.13,3.29-1.65,4.2-2.81,1.44-4.8,3.63-7.16,5.64-2.6,2.21-4.97,4.69-7.2,7.27-2.52,2.92-3.82,6.15-5.22,9.7-.07.17-.29.28-.63.58.28-2.39-2.05-6.16-3.66-7.8-3.33-3.41-6.37-6.75-11.08-8.21-4.55-1.41-9.42-1.38-14.13-1.17-.15,0-.3.01-.43-.06-.22-.11-.29-.39-.34-.63-.34-1.61-.56-3.22.19-4.35Zm-14.47,25.85c1.03-4.21,2.88-9.18,3.38-9.97,3.57-5.68,11.8-8.76,18.21-8.08,2.55.27,5.15.57,7.58,1.44,2.24.81,4.7,2.61,6.54,4.09,2.37,1.9,3.99,4.57,5.15,7.34,1.51,3.62.68,8.21,2.52,11.53-1.32.54-3.52.3-4.77-.34.8.41.6-4,.51-4.31-1.56-5.84-4.21-11.39-9.77-14.33-9.01-4.77-20.29-.64-25,8.07-1.12,2.07-1.98,4.41-1.97,6.8,0,.77.79,2.67.56,3.27-.43,1.12-1.96.66-2.91.59-1.15-.09-.84-2.86-.04-6.1Zm6.24-.09c.04-1.54.49-2.86,1.2-3.99,1.12-1.78,2.44-3.44,3.69-5.14.41-.55.93-.93,1.79-.72,1.32,3.3,2.66,6.67,4,10.04.05.12-.01.28-.03.51-3.58.56-7.03-.7-10.66-.71Zm10.11,3.73l-2.75,3.13c-1.74-.03-3.87-.15-4.73-.53-.55-.25-1.29-.06-1.94-.11-.42-.03-.83-.15-1.24-.22-.29-.93-.27-1.78-.12-2.67.91-.46,1.78-.2,2.63-.15,2.55.13,5.09.3,7.64.41.1,0,.29.06.53.15Zm.43-13.61c-.13-.4-.16-.83-.25-1.36,6.16-2.05,9.2-1.58,13.41,2.03-.57.52-1.18.99-1.68,1.55-1.11,1.25-2.18,2.54-3.26,3.82-1.12,1.34-2.16,2.75-3.64,3.64-.98-.11-1.22-.86-1.49-1.52-.76-1.89-1.49-3.8-2.22-5.7-.31-.82-.62-1.64-.89-2.47Zm2.6,14.49c1.08.17,2.24.14,3.28-.4.81.43,3.02,1.64,4.1,2.21-.79.16-1.58.26-2.55.28-1.43.03-1.63.1-2.73.1-.77,0-2.98.05-3.75.07l1.65-2.25Zm4.94-2.78c1.18-2.27,4.22-5,8.27-7.41.92,1.3,1.86,2.59,2.76,3.91.24.35.36.79.5,1.2.52,1.54.65,4.77.26,6.8-.36.08-.77.24-1.18.24-1.31,0-2.63-.07-3.94-.07-.61,0-1.14-.14-1.62-.54-1.68-1.39-3.37-2.76-5.05-4.13Zm80.48,9.19c.13.47.39.95.37,1.41-.08,2.1-.24,4.2-.37,6.33-2.51.76-4.93.3-7.48.29-3.03-.01-6.06-.02-9.09-.03-6.06-.02-12.11-.04-18.17-.07-14.52-.05-29.09-.44-43.56-.35-4.12.03-8.24.06-12.36-.03-1.75-.04-11.56-1.11-10.22,2.1.14.33.36.63.54.92,3.76,1.02,7.68.3,11.49.08,4.23-.24,8.47-.34,12.71-.36,8.38-.05,16.75.38,25.12.38s17.41.34,26.11.51c4.41.09,8.82.17,13.23.26,3.53.07,7.29-.39,10.75.56,1.27.35-6.29,15.15-7.08,16.36-3.63,5.56-8.3,10.51-13.64,14.45-2.08,1.53-4.31,2.84-6.55,4.12-1.12.64-2.28,1.23-3.37,1.92-.24.15-2.65,1.48-2.64,1.28-.04.71-.07,1.42-.13,2.13-.07.93-.43,1.34-1.36,1.38-6.82.27-13.65.3-20.48.14-3.36-.08-6.71-.2-10.06-.36-2.47-.12-6.46.39-8.6-1.09-.28-.2-.11-1.71-.24-2.07-.32-.92-.08-.62-.9-1.21-1.09-.79-2.68-1.22-3.88-1.84-2.54-1.32-4.99-2.81-7.32-4.48-4.65-3.33-8.81-7.34-12.24-11.92-6.89-9.22-9.43-19.49-10.45-30.73-.03-.28.07-.57.12-.84.94-.64,1.97-.67,2.99-.68,1.24-.01,2.49,0,3.73.03.51.01,1.07-.04,1.52.15,1.48.61,3.03.53,4.55.49,4.6-.13,9.21-.29,13.81-.48,5.2-.21,10.39,0,15.58.19.59.02,1.17.07,1.76.03,3.52-.24,7.02.17,10.53.29.22,0,.46-.02.65.07,1.76.8,3.59.53,5.41.41,4.68-.31,9.36-.5,14.05-.4.8.02,1.59.13,2.39.2.36.03.73.09,1.09.09,2.12,0,4.25-.03,6.37-.05,4.1-.04,7.95.26,12.04-.13,2.22-.21,3.67.18,4.68.07,3.29-.34,5.18.22,8.6.51Zm2.85-22.97c-.02,1.98-.43,4.81-1.33,6.6-.44.89-.82,1.66-1.05,2.63-.54,2.23-1.67,4.79-3.16,6.55-.54.63-1.21,1.16-1.59,1.92-.28.56-.21.77-.74,1.18l-.98.37c-1.39,0-2.78-.05-4.16-.09-1.29-.04-2.75.05-4.46.27l-1.17.09c-1.27.09-2.52.14-3.44.13-2.19-.04-4.38-.08-6.57-.16l-2.66-.43c1.13-.96,1.74-2.98,2.5-4.23.23-.37.58-.68.82-1.06.53-.83,1.26-1.57,1.9-2.32,1.14-1.33,2.24-2.73,3.65-3.79,1.43-1.07,3.17-1.64,4.59-2.73.62-.48,1.28-1.25,1.95-1.63.47-.27,1.07-.18,1.59-.32.63-.17.87-.55,1.45-.81.85-.38,1.76-.62,2.61-1,.96-.43,1.86-.51,2.91-.77,1.16-.29,1.75-.4,3.21-.6.77-.1,1.61-.34,2.5-.44.24-.03,1.26-.14,1.38-.14.44-.02.26.38.26.8Z" fill="#fff"/><path d="m98.88,112.37c.09-.06.18-.13.28-.2,2.47-1.85,4.86-3.81,7.19-5.84.97-.84,2.36-1.74,3-2.85.17-.29.55-3.16-.41-2.61-2.2,1.26-3.93,3.23-5.92,4.84-.59.48-7.5,5.47-7.58,5.32,1.06,1.88,1.56,2.65,3.43,1.35Z" fill="#fff"/><path d="m65.11,48.54c1.33-.27,2.46-.94,3.35-1.94.78-.87,1.03-1.91.7-3.3-1.02.01-1.95.14-2.5.81-.86,1.05-2.17,1.8-2.46,3.29-.01.07-.02.14-.02.22-.05.57.39,1.04.93.93Z" fill="#fff"/><path d="m54.27,36.73c1.5.48,2.49-.35,3.47-1.29,1.02-.98.85-2.05.46-3.15-.23-.08-.37-.18-.5-.17-1.8.24-3.77,2.1-4.03,3.82-.06.4.22.66.6.78Z" fill="#fff"/><path d="m66.26,37.24c.98-.36,1.82-.91,2.51-1.7.55-.62.86-1.35.83-2.27,0-.48-.51-.87-1.05-.7-.98.33-1.92.78-2.58,1.58-.45.55-.8,1.22-1.02,1.9-.25.78.55,1.46,1.3,1.18Z" fill="#fff"/><path d="m77.72,37.53c1.31-.36,2.4-.94,2.98-1.63.52-.63.84-1.33.7-2.29-1.76-.91-2.9.03-3.94,1.05-.37.36-.6,1.01-.62,1.54-.03.55.3,1.09.89,1.33Z" fill="#fff"/><path d="m123.71,60.79c-.31-.05-.62-.05-.94-.06-.76-.02-1.36-.35-1.87-.91-.33-.36-.5-.78-.69-1.2-.26-.56-.5-1.14-.8-1.68-.16-.27-.33-.5-.33-.84,0-.46-.35-.85-1.01-.89-.42-.03-1.02.32-1.07.74-.06.47-.32.73-.63.99-.31.26-.35.57-.18.92.16.33.34.66.5.99.35.73.67,1.47,1.05,2.18.47.89,1.04,1.71,2.11,1.98.39.1.78.17,1.01.23.54,0,.93.05,1.28-.03.35-.08.68-.07,1.02-.06.19,0,.38.05.56.02.98-.19,1.5-.72.93-1.81-.19-.37-.56-.49-.93-.55Z" fill="#fff"/><path d="m119.51,64.7c-.47-.03-.94-.04-1.4-.09-.24-.02-.49-.08-.71-.17-.8-.32-1.38-.91-1.91-1.57-.02-.02-.03-.06-.04-.08-.16-.23-.32-.46-.48-.68-.18-.25-.36-.5-.54-.75-.32-.42-.62-.86-1.13-1.09-.4-.18-.75-.02-1.05.18-.29.2-.44.52-.3.9.06.17.08.37.16.53.16.33.4.63.53.97.37.94,1.11,1.61,1.64,2.43.05.08.11.16.18.21.66.51,1.29,1.07,1.98,1.52.94.61,1.94,1.08,3.13,1.04.49-.02.84-.15,1.09-.56.08-.13.17-.26.31-.46-.08-.48-.13-.94-.25-1.39-.17-.65-.54-.92-1.2-.97Z" fill="#fff"/><path d="m125.7,54.09c-.21-.17-.71-.11-.96-.25-1.14-.16-1.6-.05-1.98.59-.26.87-.27,1.71.16,2.53.31.61.89.88,1.55.7.15-.04.29-.1.44-.15.85-.29,1.48-1.15,1.48-2.05,0-.15-.02-.33-.11-.43-.25-.27-.28-.71-.57-.94Z" fill="#fff"/></svg>