<?xml version="1.0" encoding="UTF-8"?><svg id="Layer_1" xmlns="http://www.w3.org/2000/svg" viewBox="0 0 150 150"><path d="m130.97,126.16c-.15-17.95-.29-48.21-.41-65.85-2.79-32.76,9.8-38.52-19.31-34.82-4.6,2.14.58,96.74-.88,100.86-.89,2.99,21.52,2.39,20.6-.2Zm-17.28-3.42c.18-3.6.03-11.3-.44-29.3-.55-21.08-1.46-55.63.07-62.94,4.79-.59,12.53-1.41,13.95.18.76.84.49,4.53.21,8.43-.38,5.27-.89,12.47-.09,22.02.05,6.79.1,15.5.15,24.61.07,12.89.15,26.57.23,36.73-3.16.75-10.83.9-14.08.28Zm-15.59-97.06s-10.03-1.66-19.91-.48c-.6.07-1.03.67-.96,1.34.55,5.1,5.37,23.92,5.1,45.18-.33,25.56-6.97,53.8-7.23,54.5-.91,2.99,21.3,2,22.18-.2,3.23-22.21,5.96-37.27,5.48-54.9-.57-20.9-4.66-45.44-4.66-45.44Zm1.28,58.97c-1.42,12.81-2.25,23.67-5.32,37.67-3.26.75-12.07.9-15.43.28.18-3.6,3.94-12.02,6.1-30.06,3.38-28.18-1.5-46.96-4.24-60.85-.15-.78.34-1.52,1.05-1.6,4.77-.54,12.18-.99,13.52.46.78.84,1.07,4.27,1.41,8.16.67,7.63,1.64,9.45,2.92,20.02.98,8.09,1.13,15.78,0,25.92ZM62.16,25.25s-4.11-.74-15.18.57c-2.36,1.02,8.1,26.16,8.61,49.33.52,23.9-11.07,46.31-13.23,50.85-.17.37.01.8.4.91,3.86,1.09,13.2,1.51,19.89-.43,4.02-18.83,11.59-25.11,13.04-51.52.88-22.23-13.52-49.72-13.52-49.72Zm9.1,60.88c-2.65,12.24-8.15,24.27-11.36,36.36-3.4.75-8.8.83-12.3.21,4.7-10.1,12.13-28.2,11.18-48.85-.97-21.01-7.43-34.81-9.02-43.95,5.15-.59,10.24-.74,10.24-.74,0,0,3.09,5.64,4.51,10.14,1.48,4.7,4.54,9.89,6.76,20.29,1.54,9.65,2.4,15.44,0,26.54Zm-23.01-8.87c.24-.26.36-.51.37-.77.08-1.12-1.72-2.16-2.47-2.92-1.38-1.39-2.76-2.78-4.15-4.16-2.72-2.7-5.44-5.39-8.15-8.1-.94-.94-2.17-.71-3.41-.73-.19,0-2.53-.12-2.56.04-.21,1.32,0,2.86,0,4.2,0,.72.02,1.44.04,2.17.01.38.17,1.23-.19,1.5-.24.18-1.32,0-1.64,0-.59,0-1.19,0-1.78,0-1.14,0-2.29,0-3.43,0-2.28,0-4.55,0-6.83,0-.38,0-1.53-.21-1.86,0-.32.2-.16,1.18-.16,1.56v2.82c0,3.76-.03,7.52,0,11.29,0,.09,0,.19.07.26.06.06.15.06.23.06,4.96-.03,9.91-.05,14.87-.09.17,0,.35,0,.5.08.71.38.17,3.1.17,3.79,0,1.36,0,2.73,0,4.09,1.67,0,3.34,0,5,0,.09,0,.18,0,.26-.03.08-.03.14-.09.2-.15,2.55-2.57,5.09-5.14,7.6-7.76.32-.34.65-.68.97-1.01.33-.34.66-.69,1-1.03,1.73-1.75,3.65-3.29,5.33-5.08Zm-7.65,3.07c-.33.34-.66.68-.98,1.02l-.93.97c-1.95,2.03-4.09,4.22-6.7,6.85h-1.48v-1.39c0-.09.03-.27.05-.48.2-1.82.47-4.32-1.57-5.39-.63-.33-1.22-.37-1.61-.37-3.92.03-7.77.05-11.61.07h-.48c0-1.62,0-3.24,0-4.86v-5.4h10.97l.15.02c.31.03.67.06.98.06.51,0,1.27-.06,1.97-.59,1.4-1.05,1.25-2.78,1.2-3.43-.03-.79-.04-1.47-.05-2.14,0-.43-.03-.88-.05-1.34,0-.06,0-.11,0-.17h1.07c.36-.01.47.01.49.02,1.67,1.71,3.46,3.48,5.24,5.25l2.48,2.46c1.33,1.32,2.65,2.64,3.97,3.97.24.25.57.52.93.81.04.04.09.08.14.12-.57.55-1.16,1.09-1.78,1.66-.79.72-1.61,1.47-2.4,2.27Z" fill="#fff"/></svg>