<?xml version="1.0" encoding="UTF-8"?><svg id="Layer_1" xmlns="http://www.w3.org/2000/svg" viewBox="0 0 150 150"><path d="m137.63,89.92c-.05-.88-.1-1.71-.1-2.46,0-3.65-.05-7.65-.16-12.59-.07-3.19-.15-6.39-.24-9.58-.14-5.29-.29-10.77-.35-16.16,0-.68,0-1.36,0-2.03.05-4.15.09-7.73-3.6-10.27-2.74-1.89-6.15-2.72-9.44-3.51l-.68-.17c-7.07-1.73-14.61-1.99-21.82-.77-3.64.62-7.19,1.61-10.55,2.96-.43.17-.92.43-1.43.71-1.07.57-2.28,1.22-3.38,1.25-1.1.05-2.49-.63-3.69-1.21-.55-.27-1.06-.52-1.49-.68-7.38-2.69-14.98-4.04-22.34-4.04-7.92,0-15.57,1.56-22.34,4.66-3.99,1.83-3.8,5.55-3.6,9.49.03.6.06,1.19.08,1.78.15,5.87.35,11.72.58,18.21.02.68-.11,1.34-.24,1.98-.06.28-.11.55-.15.82l-.05.3-.29.09c-3.56,1.06-6.56,1.7-9.44,1.99-4.65.48-8.36,2.26-12.05,5.79-1.42,1.36-1.76,2.77-1.85,4.6-.04.93.06,1.89.17,2.83l.08.75c.7,7.03,4.77,12.59,8.88,17.68.9,1.11,1.92,2.17,2.9,3.2.31.32.62.65.93.97l.36.38c.6.64,1.28,1.25,1.91,1.85q3.63,3.48,6.91,7.91c.2.27.42.54.67.7,2.72,1.72,6.02,3.51,9.95,3.76,1.23.08,2.5.18,3.8.29,7.3.6,15.57,1.28,21.68-2.77,3.26-2.16,5.35-5.6,7.37-8.92,1.31-2.16,2.67-4.39,4.34-6.28.75-.85,1.69-1.24,2.9-1.23l.84.02c1.05.03,2.14.06,3.19-.02,1.36-.09,2.69-.18,3.88-.56,7.26-2.29,15.09-2.95,23.92-2.05,1.52.16,3.08.37,4.72.6,4.34.6,8.83,1.21,12.86.77,2.22-.25,4.11-1.2,5.18-2.62.04-.06.08-.11.12-.17h0c1.4-2.05,1.21-5.35,1.05-8.26ZM36.42,49.32c.12-1.58.21-2.83.21-3.2,0-.55-.03-1.11-.07-1.67-.15-2.46-.3-5,2.62-6.31.15-.07.3-.14.45-.22.35-.17.71-.35,1.11-.46,14.26-3.89,28.88-2.98,41.19,2.56.55.25.71.99.46,8.86-.05,1.58-.1,2.94-.07,3.37.3,4.33.44,8.73.44,13.08,0,.47.04.98.08,1.52.14,2,.33,4.48-1.91,5.09-.33.09-.68.13-1.04.13-1.22,0-2.59-.43-3.83-.81-.62-.19-1.21-.38-1.71-.48-8.92-1.88-19.52-3.62-30.52-2.31-2.42.29-4.75-.06-7.01-.4-1.21-.18-1.58-3.03-.4-18.76Zm44.49,43.37c-.64,1.47-1.17,2.94-1.99,4.33-.27.46-.59.84-.94,1.16-1.72,3.37-1.63,4.56-3.97,7.91-2.55,3.65-5.04,7.16-8.8,10.11-.41.27-4.86,1.58-5.26,1.87-.88.62-2.79.25-3.79.7-1.51.68-6.69.88-7.73.58-.24-.07-.48-.14-.73-.22-.77-.24-1.51-.46-2.24-.52-2.14-.16-4.23-.71-6.27-1.36-1.24-.39-2.52-.61-3.73-1.08-1.29-.5-2-1.47-3.07-2.28-1.05-.79-1.86-1.65-2.72-2.65-1.29-1.51-2.84-2.92-3.96-4.57-1.18-1.73-2.6-3.45-4.07-4.93-1.25-1.26-2.52-2.36-3.26-4.02-.61-1.35-1.26-2.7-1.93-4.03s-1.39-2.77-2.15-4.12c-.39-.7-.85-1.8-1.54-2.26-.44-.29-.24-.91.28-.88.49.02,2.13.02,2.5.16,1.04.39,4.89.91,5.73,1.14.82.02,3.38.07,4.19.16,2.28.25,4.5.31,7.16.36,1.5.03,2.99.03,4.49.03,1.69,0,3.43,0,5.15.04.46.01.92,0,1.38-.03,1.42-.07,9.62.25,11.04.04,1.49-.23,2.98-.45,4.47-.65.19-.03,2.65-.42,3.45.02,1.36.76,4.62-.2,5.02-.29.64-.15,1.29-.3,1.93-.45,1.14-.27,2.3-.55,3.48-.78,3.95-.56,7.98.08,7.98.08-.11.53.71,4.58-.1,6.43Zm-56.31-7.55s.2-1.56,2.25-1.56c.57,0,2.31,1.4,2.31,1.4.3-.2.54-.37.74-.52.45-.33.78-.57,1.18-.59.42-.03.72.18,1.24.51.26.17.59.38,1.03.62l1.59.89-7.26.05,1.28-.83-4.35.03Zm20.46,0l.44-.73c.53-.88.82-1.36,1.35-1.44.57-.08,1.03.36,2.03,1.32l.72.69c.3-.2.54-.37.74-.52.45-.33.78-.57,1.18-.59.42-.03,4.98,1.76,4.98,1.76,0,0-3.07.28-4.76.28-2.4,0-3.42-.28-3.42-.28l1.07-.52-4.35.03Zm21.33-3.1l1.28.83-7.26-.05,1.59-.89c.44-.24.77-.45,1.03-.62.52-.33.82-.54,1.24-.51.4.02.73.26,1.18.59.2.15.44.32.74.52,0,0,2-2.88,4.11-.57.14.16.44.73.44.73l-4.35-.03Zm-30.54.67s1.23-2.2,2.66-2.19c2.66.02,4.08,1.94,4.08,1.94l-2.45.09-4.3.16Zm14.72-1.18l-2.45-.09,1.07-1.02c1.49-1.42,2.17-2.06,3.01-1.95.79.11,1.22.82,2.01,2.13l.66,1.09-4.3-.16Zm24.38,1.35c-.63-.06-1.41-.66-1.62-1.26-.51-1.41-1.67-1.69-3.01-2.01-.2-.05-.39-.09-.58-.14-1.71-.45-3.51-.82-5.1-1.14-.71-.15-1.46-.22-2.19-.29h-.12c-.06,0-.15.01-.21.03-.24.06-.56.14-.83-.08-1.24-1.04-2.67-1-4.18-.96-.85.02-1.73.05-2.58-.13-3.28-.69-6.35-.45-9.66.75-1.17.42-2.61.1-3.87-.23-1.28-.34-2.15-.15-2.88.63-.96,1.02-2.15,1.26-3.18,1.4-3.22.46-5.68.88-7.96,1.39-.65.14-1.41.62-2.08,1.3-.3.31-.49.78-.7,1.27-.1.24-.2.49-.31.72l-.13.27h-.3c-3.64-.03-6-1.12-10.14-4.68l-.39-.34.36-.37c.19-.2.38-.4.56-.61.43-.48.87-.99,1.44-1.34,3.88-2.4,8.67-3.21,13.31-3.99,1.24-.21,2.47-.42,3.65-.65,8.52-1.69,16.97-1.99,27.39-.95,5.02.5,9.69,1.29,14.26,2.43,1.22.3,2.51.48,3.75.66,2.64.37,5.37.75,7.75,2.32.18.12.57.37.66.82l.02.11c.04.43-.2.79-.32.96-2.85,4.13-5.76,4.62-10.8,4.13Zm57.22,12.34c-.15.99-.49,1.65-1.03,2-.81.52-1.82.24-2.88-.05-.43-.12-.88-.24-1.31-.31-2.74-.43-5.53-.59-8.16-.72-4.51-.22-9.41-.19-15.42.08-1.25.06-2.57.08-3.85.09-2.69.04-5.47.08-7.98.47-.49.08-4.34,1.06-6.4,1.59-1.16.3-1.59.41-1.8.41-.13,0-.17-.04-.24-.1l-.19-.17.03-.25c.44-3.72,2.57-7.77,4.46-11.34,1.29-2.45,2.51-4.76,2.83-6.38.43-2.21-.66-3.65-1.92-5.31-.27-.35-.54-.71-.8-1.08-1.61-2.29-1.99-4.84-2.15-7.03-.4-5.49-.35-11.09-.3-16.51.02-2.41.04-4.91.03-7.35v-.25s.2-.14.2-.14c.22-.15.44-.32.65-.48.51-.38,1.04-.78,1.62-1.1,8.28-4.48,15.52-6.16,24.24-5.6,2.81.18,5.86.57,9.31,1.19.79.14,1.65.22,2.55.3,3.52.33,7.5.69,8.16,5.24.49,3.39.36,7.03.23,10.55-.06,1.6-.12,3.12-.12,4.62,0,5.33-.01,10.66.02,15.98.02,3.84.11,7.75.2,11.53.05,2.13.1,4.26.14,6.39v.54c.04,1.05.06,2.14-.1,3.2Z" fill="#fff"/><path d="m139.85,109.11h0c-.14-.38-.4-.78-.76-1.21-.54-.64-1.46-1.06-2.73-1.24-3.09-.43-5.62-.13-8.84.35-3.14.47-6.28.93-9.42,1.39-3.13.46-6.03,1.2-8.84,1.91-2.8.71-5.7,1.45-8.85,1.92-1.21.21-2.44-.02-3.61-.22l-.45-.07c-1.41-.23-2.88-.34-4.17-.44-2.05-.16-4.61-.27-7.18.09-.62.09-1.23.2-1.84.35-3.06.73-6.6,1.98-6.88,5.19-.33,3.72,2.72,5.71,5.69,6.33,2.26.47,5.23.97,8.14.58,4.23-.56,6.71-2.98,9.1-6.44,1.45-2.1,3.57-2.53,5.62-2.96l.51-.11c6.53-1.39,13.33-1.17,19.91-.95,1.6.05,3.19.1,4.77.13,2.07.04,8.18-.81,9.68-2.95.36-.51.41-1.04.17-1.66Zm-42.52,5.84c-1.59,2.04-4.14,3.47-7.18,4.03-.24.04-.48.08-.72.12-2.53.35-5.05.14-7.43-.16h-.08c-1.35-.18-2.87-.36-3.32-1.35-.23-.51-.12-1.1.32-1.76.88-1.31,3.07-2.1,4.32-2.32,4.88-.82,9-.66,13.78.54l.84.21-.53.68Z" fill="#fff"/><path d="m94.65,51.48c2.02.67,3.81.67,5.61,0,4.64-1.73,10.25-2.41,16.68-2.03,1.08.06,2.22.17,3.28.63.26.11.51.25.76.38.53.29,1.04.56,1.56.58.55.02.93-.1,1.17-.36.55-.62.34-2.04.2-2.98-.03-.18-.05-.35-.11-.42l-.02-.02c-.1-.08-.32-.12-.46-.14-3.23-.55-6.71-.82-10.24-.82-5.11,0-10.31.57-14.97,1.68-1.48.35-2.71.76-3.76,1.23-.32.15-.71.71-.79,1.14-.06.35-.03.76,1.07,1.13Z" fill="#fff"/><path d="m115.17,73.27c-1.26,0-2.52.08-3.69.15-.75.05-1.46.09-2.13.11-3.11.1-5.92.58-8.34,1.43l-.3.1c-1.14.4-2.86.99-3.55,1.87-.8,1.01-.76,1.05.19,2.07.16.17.33.36.52.57.21.23.42.47.66.61.08.04.17.08.27.1h0c.9.19,2.41-.52,3.4-.99.27-.13.51-.24.72-.33,3.84-1.64,7.95-2.21,12.56-1.72.81.09,1.62.19,2.43.29.67.09,1.34.17,2,.24.18.02.36.05.54.08.45.08.92.15,1.23.04.82-.31,1.37-.79,1.46-1.28.1-.5-.29-.99-.63-1.3-1.8-1.65-4.57-2.03-7.36-2.03Z" fill="#fff"/><path d="m97.07,66.04c3.27-1.93,6.56-2.82,10.04-2.75.16,0,.34-.05.53-.1.2-.05.4-.11.6-.13.54-.05,1.07-.12,1.61-.18,3.34-.39,6.79-.8,10.16,1.1.44.25.81.31,1.15.18.52-.2,1-.86,1.4-1.92-1.36-1.85-2.7-2.7-4.31-2.75-2.76-.09-5.66-.05-8.87.13-1.06.06-2.14.24-3.19.41-.78.13-1.59.26-2.4.35-2.57.28-5.59.76-8.41,2.21-.91.47-1.51.84-1.68,1.65.05.01.1.02.15.03.47.1.96.21,1.4.44.51.27.96.63,1.43,1,.13.1.26.21.4.32Z" fill="#fff"/><path d="m44.96,49.88c1.68.19,3.36.11,5-.27,2.98-.67,5.74-1,8.59-1,2.1,0,4.25.18,6.56.54.9.14,1.83.36,2.74.58,1.99.48,4.04.97,5.95.63.46-.08,1.07-.51,1.13-.69.08-.6-.16-1.44-.5-1.75-1.22-1.1-2.59-1.71-4.06-1.82-.93-.07-1.87-.22-2.77-.35-.81-.12-1.64-.25-2.46-.33-4.28-.38-9.33-.61-14.38.58-.41.1-.9.19-1.44.29-1.74.33-4.12.79-5.14,1.68-.31.27-.48.56-.48.83,0,.29.15.51.29.64.24.23.59.38.98.43Z" fill="#fff"/><path d="m69.5,59.75c-.1,0-.19,0-.29,0-2.2,0-4.42-.19-6.57-.37-.59-.05-1.18-.1-1.77-.15-4.24-.33-7.89-.1-11.19.7-1.29.31-2.63.86-3.98,1.62-.23.13-.42.54-.64,1.02-.06.13.21.51.4.56.68.19,1.22.34,1.71.31,1.79-.11,3.62-.29,5.38-.47,1.31-.13,2.62-.26,3.94-.36l1.19-.1c4.56-.37,9.27-.76,13.93.38.28.07.66-.02,1.06-.12.06-.02-.06-.87-.06-.87-.46-1.54-1.34-2.15-3.11-2.15Z" fill="#fff"/><path d="m53.79,99.96c-.72,0-1.44.06-2.21.14-.36.03-.74.07-1.13.1l-.25.02-.06-.24c-.09-.37-.18-.74-.26-1.11-.2-.84-.38-1.63-.62-2.42-.39-1.28-1.1-1.73-2.45-1.56-1.81.22-2.97,1.32-3.27,3.11-.13.79-.19,1.59-.26,2.44-.03.4-.06.81-.1,1.23l-.02.26s-3.19-.43-4,.15c-1.47,1.06-.98,2.64-.75,3.11.21.42.83.6,1.24.74s.81.23,1.19.39c.46.19.86.48,1.26.77.01,0-.04.18-.04.2-.05.19-.1.37-.15.55-.1.36-.2.71-.24,1.04-.07.59-.06,1.08.03,1.5.17.84.88,1.36,1.77,1.29.43-.03.8-.06,1.09-.19,1.39-.64,2.41-.28,3.61.5.9.59,1.99.64,2.99.17,1.09-.52,1.85-1.57,1.98-2.75.07-.59,0-1.21-.08-1.86-.04-.32-.07-.64-.1-.96v-.16s.54-.39.54-.39c.3-.21.6-.42.89-.64.12-.09.24-.17.36-.25.33-.23.63-.44.89-.7.77-.78.99-1.68.67-2.69-.35-1.09-1.3-1.77-2.49-1.77Zm-12.7,4.58s-.08-.02-.12-.04c-.12-.05-.22-.12-.31-.19-.05-.03-.09-.07-.14-.1l-.13-.08v-.15c-.02-.18.07-.36.23-.49.46-.35,1.57-.41,2.49-.11.16.05.45.2.54.4l.05.12-.05.15c-.26.61-1.66.68-2.56.49Zm5.03-7.61l.29-.47.23.5c.91,2,.91,3.22-.01,4.5l-.23.32-.24-.31c-1.13-1.45-1.14-2.72-.03-4.54Zm-1.92,12.35l-.37.13-.02-.39c-.11-1.84.6-2.89,2.54-3.76l.5-.22-.1.54c-.38,2.16-1.08,3.16-2.56,3.7Zm6.08-6c.04-.06.08-.12.11-.19.11-.19.23-.4.44-.51l.23-.12c.62-.33,1.38-.74,2.19-.06.11.09.17.24.19.44,0,.07.03.45-.16.66-.69.81-1.16.95-2.05.6-.25-.1-.53-.23-.85-.4l-.3-.16.19-.27Zm.46,6.85c-.2.23-.68.38-.98.26-.01,0-.02-.01-.04-.02-1.05-.52-1.6-2.04-1.1-3.07.11-.23.36-.29.61-.36.09-.02.17-.05.26-.08l.09-.04.09.03c.68.19,1.22.76,1.43,1.48.19.66.06,1.32-.35,1.79Z" fill="#fff"/></svg>