<?xml version="1.0" encoding="UTF-8"?><svg id="Layer_1" xmlns="http://www.w3.org/2000/svg" viewBox="0 0 150 150"><path d="m128.02,56.89c-1.04-5.75-3.46-11.22-7.39-16.7-.23-.33-.46-.66-.69-1-.66-.98-1.34-1.99-2.21-2.82l-.14-.14c-2.75-2.61-5.6-5.32-9.24-7.05-1.26-.6-2.52-1.3-3.74-1.97-.81-.45-1.63-.9-2.45-1.33-4.92-2.56-10.09-4.21-15.38-4.91-2.27-.3-4.48-.64-6.82-1.01-.75-.12-1.49-.23-2.25-.34-.14-.68-.27-1.3-.4-1.92-.02-.09-.03-.19-.05-.29-.06-.43-.13-1.01-.54-1.5-.53-.65-1.43-.89-2.1-.9h-.02c-.96,0-1.79,1-1.85,1.83-.06.92-.07,1.84-.07,2.73v.05c-2.19.66-4.17,1-6.18,1.07-8.25.3-16.92,3.37-25.76,9.11-6.28,4.08-17.09,12.95-18.96,26.56-.28,2.06,1.02,2.75,1.82,2.98.29.08.59.06.86-.07.09-.04.19-.08.29-.12.29-.12.66-.27,1.02-.5,2.9-1.86,10.22-5.82,15.62-2.6,1.33.79,2.66,1.59,4.03,2.41l2.13,1.27c.42.25.95.24,1.36-.04l.22-.15c.2-.14.45-.31.7-.48.75-.5,1.48-1.03,2.23-1.57,2.77-2.02,5.4-3.92,8.6-3.92h.05c3.49.02,7.16,1.86,9.36,4.69.63.81,1.33,2.08,1.21,3.58,0,0,.04.9.24,1.15.21,3.42.38,7.26.34,11.08,0,.98.06,1.93.14,2.8.04.54.35.88.56,1.11.05.06.11.12.17.19.24.31.61.5,1,.5.03,0,.05,0,.08,0l2.22-.14c.6-.04,1.09-.49,1.17-1.09.02-.19.05-.35.08-.51.06-.37.12-.71.12-1.1,0-2.97-.02-5.94-.04-8.9l-.03-5.27c0-.25,0-.54,0-.85.19-1.75,1.37-3.09,2.77-4.51,1.07-1.09,2.18-1.7,3.29-1.82.8-.08,1.6-.16,2.4-.24.64-.06,1.28-.12,1.92-.19,2.12-.21,4.21.24,6.4,1.4l.08.04c1.66.88,3.23,1.71,4.25,3.18.38.55,1,.89,1.69.94.78.05,1.53-.26,2.05-.82.21-.23.4-.49.58-.75.15-.21.29-.4.42-.54,2.67-2.82,6.38-3.29,9.98-3.7,2.81.75,5.55,1.54,8.05,2.86,1.26.67,2.14,1.56,2.67,2.73l.07.15c.7,1.62,1.78,2.19,3.2,1.71.4-.13.7-.46.81-.87.02-.06.04-.13.06-.19.09-.27.22-.64.21-1.08-.02-.78-.09-1.52-.22-2.2Zm-6.66-2.61c-2.74-1.45-5.64-2.28-8.62-3.06-.15-.04-.3-.05-.45-.03-3.85.43-8.22.93-11.5,4.4-.25.26-.45.54-.63.79-.11.15-.22.31-.36.45-1.33-1.8-3.14-2.76-4.89-3.68l-.08-.04c-2.59-1.37-5.09-1.91-7.66-1.64-.62.06-1.24.12-1.86.18-.79.08-1.58.15-2.37.24-1.67.18-3.26,1.02-4.71,2.5-1.17,1.19-2.83,2.88-3.31,5.27-.05.16-.08.33-.1.49h-.02s0,.11,0,.21c0,.04,0,.08,0,.11-.02.23-.02.47-.02.71,0,.13,0,.29.02.45l.02,4.89c.02,2.9.03,5.8.04,8.71,0,.07,0,.15-.02.24l-.39.02c-.05-.64-.09-1.31-.08-1.97.04-4.55-.21-9.1-.46-12.95-.01-.22-.08-.42-.2-.59-.22-1.19-.76-2.36-1.6-3.45-2.63-3.39-6.88-5.51-11.08-5.53h-.06c-3.93,0-6.95,2.19-9.86,4.3-.7.51-1.39,1.01-2.09,1.48-.1.06-.2.13-.29.2l-1.4-.84c-1.34-.8-2.64-1.58-3.94-2.36-6.46-3.85-14.65.53-17.87,2.59-.04.03-.08.05-.13.08,1.73-12.31,11.66-20.43,17.44-24.18,8.27-5.37,16.33-8.24,23.96-8.52,2.45-.09,4.85-.55,7.55-1.43.5-.16,1.07-.72,1.07-.72.1.5.51.89,1.02.97,1.02.15,2.03.31,3.03.46,2.2.34,4.48.69,6.72.99,4.89.65,9.68,2.18,14.24,4.55.79.41,1.57.84,2.34,1.27,1.23.68,2.49,1.37,3.79,1.99,3.21,1.53,5.85,4.04,8.4,6.46l.14.13c.66.62,1.22,1.46,1.82,2.35.24.35.47.7.71,1.04,3.59,5.01,5.81,9.98,6.78,15.18-.74-1.1-1.77-2-3.06-2.68Z" fill="#fff"/><path d="m85.07,102.38c-1-1.04-3.11-1.79-3.56-1.94-.04-.02-.09-.04-.13-.05-2.68-1.1-5.3-1.49-8.22-1.25-1.49.12-3.06.32-4.53.93-2.45,1.01-4.93,3.34-6.32,5.93-.74,1.38-1.14,2.79-1.19,4.21-.04,1.1.03,3.75,1.48,4.64.29.18.62.27,1.01.3,3.16.23,3.8-2.76,4.23-4.74.21-.97.43-1.98.82-2.43l.12-.14c.11-.13.4-.48.61-.66.05.32-.01.95-.05,1.28-.04.36-.07.69-.06,1,.03,1.12.07,2.6.06,4.11,0,.25,0,.49,0,.74.01.54.02,1.06-.03,1.5-.36,2.17-.22,4.41-.08,6.58.06.86.11,1.72.13,2.56l.03,1.13c.04,1.23.08,2.5.05,3.73v.35c-.06,1.19-.13,2.99,1.04,4.05.51.46,1.17.7,1.95.7.2,0,.41-.01.62-.04,2.65-.37,2.33-4.22,2.13-6.76-.04-.55-.09-1.07-.08-1.38l.06-4.32c0-.17,0-.4-.02-.66-.02-.39-.08-1.55.1-1.92.31-.05.47-.01.52.02.04.03.05.08.05.07,0,.98.02,1.97.04,2.96.03,1.4.05,2.84.03,4.25,0,.36,0,.71,0,1.06,0,.94,0,1.83-.12,2.72-.11.89-.34,2.73,1.51,3.57.72.33,1.59.33,2.33,0,.7-.31,1.21-.86,1.43-1.56.17-.53.17-1.02.18-1.5,0-1.5.08-3.03.14-4.51.1-2.2.2-4.48.11-6.75l-.04-.99c-.07-1.7,0-3.44.08-5.13.05-1.04.09-2.09.11-3.13,0-.54-.02-1.07-.04-1.6-.03-.54-.05-1.06-.04-1.57.46.59.78,1.46.96,2.58.04.22.04.45.06.68.03.52.06,1.12.3,1.72l.05.14c.09.25.21.55.41.85.48.7,1.29,1.14,2.34,1.28.71.09,1.31.02,1.82-.22.84-.4,1.44-1.26,1.59-2.3.31-2.08-.23-4.78-1.34-6.72-.77-1.36-1.58-2.24-2.63-3.33Zm1.73,9.72c-.04.31-.19.53-.32.59-.06.03-.22.07-.56.02-.38-.05-.68-.17-.78-.32-.05-.07-.1-.22-.16-.37l-.07-.17c-.1-.27-.12-.62-.15-1.02-.02-.31-.04-.61-.08-.91-.25-1.55-.74-2.8-1.5-3.73-.45-.56-1.82-2.26-3.14-1.25-.45.34-.56.84-.61,1.03-.27,1.2-.21,2.33-.16,3.42.02.48.05.96.04,1.45-.01,1.02-.06,2.05-.11,3.07-.08,1.73-.16,3.52-.08,5.32l.04,1c.09,2.18-.01,4.41-.11,6.56-.07,1.5-.13,3.05-.14,4.62,0,.3,0,.59-.07.78-.03.09-.12.15-.19.18-.15.07-.34.07-.48,0-.21-.09-.33-.15-.2-1.23.13-1.02.13-2.03.14-2.99,0-.34,0-.68,0-1.03.03-1.45,0-2.92-.03-4.34-.02-.98-.04-1.96-.04-2.92,0-.51-.23-1.29-.88-1.82-.44-.36-1.23-.73-2.5-.47h0c-2,.42-1.87,2.9-1.8,4.24.01.2.02.38.02.51l-.06,4.32c0,.42.04.96.09,1.6.08.97.32,3.92-.19,4.34-.21.03-.58.06-.74-.09-.39-.35-.33-1.65-.31-2.28v-.38c.05-1.29,0-2.59-.03-3.85l-.03-1.11c-.02-.87-.08-1.75-.14-2.64-.13-2.04-.27-4.16.06-6.12.08-.64.06-1.26.05-1.86,0-.23,0-.46,0-.68,0-1.54-.03-3.04-.06-4.18,0-.16.02-.44.05-.7.1-1.01.24-2.26-.54-3.13-.28-.32-.81-.7-1.68-.71h-.02c-1.02,0-1.79.92-2.3,1.53l-.1.12c-.76.88-1.04,2.17-1.31,3.42-.53,2.43-.89,3.01-1.86,2.96-.2-.3-.43-1.35-.39-2.61.04-1.06.35-2.14.92-3.22,1.16-2.16,3.19-4.08,5.18-4.91,1.12-.46,2.35-.64,3.86-.76,2.56-.21,4.84.13,7.19,1.1l.09.04s.08.04.12.05c.83.27,2.22.88,2.7,1.38,1,1.04,1.65,1.75,2.3,2.88.86,1.51,1.3,3.68,1.06,5.27Z" fill="#fff"/><path d="m72.79,97.55c.35.16.71.27,1.09.35.38.08.76.11,1.15.11.74,0,1.48-.13,2.2-.4.76-.28,1.63-.6,2.32-1.54.47-.64.82-1.43,1.04-2.37.15-.67.1-1.3.06-1.86l-.03-.39c-.03-.56-.07-1.27-.36-1.91-.5-1.12-1.54-1.99-2.34-2.42l-.22-.13c-.36-.21-.81-.47-1.4-.54-.57-.07-1.22-.14-1.88.04-2.16.57-3.9,1.22-5.03,4.01-.03.08-.05.15-.07.23-.06.36-.23,1.55.01,2.38.21,1.36.74,2.44,1.59,3.19.49.43,1.1.92,1.85,1.25Zm-1.25-6.33c.67-1.59,1.43-2.02,3.46-2.56.26-.07.66-.03,1.02.02.14.02.33.13.55.26.09.05.18.11.28.16.58.32,1.14.88,1.36,1.36.12.26.14.71.17,1.11l.03.44c.03.44.07.85,0,1.18-.15.63-.37,1.15-.65,1.54-.27.36-.56.49-1.29.76-.71.26-1.45.33-2.13.19-.22-.04-.43-.11-.62-.2t0,0c-.38-.17-.75-.42-1.27-.88-.46-.41-.74-1.03-.86-1.9,0-.06-.04-.17-.06-.23-.05-.17-.04-.75.03-1.24Z" fill="#fff"/><path d="m116.95,83.62c-1.37-1.43-4.35-2.46-4.89-2.64l-.17-.07c-3.71-1.52-7.33-2.06-11.37-1.73-2.05.17-4.23.44-6.25,1.27-3.37,1.39-6.78,4.59-8.69,8.16-1.01,1.89-1.56,3.82-1.62,5.75-.05,1.48.03,5.06,1.91,6.22.35.22.77.34,1.26.37,4.13.3,4.97-3.57,5.59-6.38.31-1.41.63-2.86,1.22-3.55l.17-.2c.21-.24.81-.97,1.13-1.13.14.01.19.04.19.04.26.23.11,1.66.05,2.2-.05.49-.1.95-.09,1.36.05,1.58.1,3.67.09,5.77,0,.34,0,.69.01,1.03.02.77.03,1.5-.04,2.15-.55,3.3-.26,10.49-.04,15.74.06,1.36.1,2.54.13,3.41l.05,1.6c.05,1.72.11,3.49.06,5.22l-.02.49c-.07,1.61-.17,4.03,1.36,5.42.66.59,1.5.89,2.51.89.26,0,.54-.02.82-.06,3.4-.48,2.98-5.68,2.7-9.12-.07-.82-.13-1.52-.12-1.98l.08-6.06c0-.24-.01-.55-.03-.91-.09-1.78,0-2.79.26-3.01h0c.52-.11.93-.08,1.13.07.17.13.2.36.2.36h0c0,1.37.03,2.75.05,4.15.04,1.96.08,3.99.04,5.96,0,.5-.01.99-.01,1.49,0,1.33,0,2.59-.17,3.85-.16,1.25-.45,3.59,1.92,4.67.92.42,2.05.42,3,0,.89-.39,1.54-1.1,1.82-1.98.22-.69.23-1.36.23-2,0-2.1.1-4.25.2-6.32.14-3.08.28-6.26.15-9.44l-.06-1.39c-.11-2.73.05-8.84.16-13.3.05-1.89.09-3.56.11-4.7.01-.76-.03-1.5-.06-2.22-.05-1.04-.1-2.04,0-3.05.13.15.29.33.47.56.71.87,1.2,2.16,1.46,3.84.05.3.07.63.08.98.04.71.08,1.51.39,2.31l.08.2c.13.35.28.74.54,1.13.62.9,1.67,1.48,3.05,1.66.93.13,1.71.04,2.37-.27,1.08-.51,1.85-1.62,2.05-2.98.42-2.85-.32-6.55-1.83-9.21-1.06-1.87-2.13-3.04-3.64-4.6Zm2.98,13.45c-.07.5-.33.93-.63,1.07-.21.1-.54.12-.97.06-.64-.08-1.12-.3-1.31-.59-.09-.13-.17-.36-.26-.59l-.09-.23c-.17-.43-.19-.96-.23-1.53-.02-.4-.04-.81-.11-1.24-.33-2.12-1-3.81-2.03-5.08-.64-.8-2.35-2.92-3.95-1.7-.54.41-.67.99-.72,1.25-.37,1.64-.29,3.2-.21,4.71.04.71.07,1.38.06,2.06-.02,1.13-.06,2.79-.11,4.67-.12,4.75-.27,10.65-.16,13.47l.06,1.39c.12,3.07-.01,6.2-.15,9.23-.09,2.1-.19,4.27-.2,6.46,0,.45,0,.88-.11,1.2-.08.25-.29.38-.45.46-.3.13-.66.14-.94.01-.53-.24-.66-.56-.47-2.07.18-1.42.18-2.81.19-4.15,0-.48,0-.96.01-1.45.04-2.02,0-4.07-.04-6.06-.03-1.38-.05-2.75-.05-4.1,0-.64-.29-1.63-1.12-2.3-.56-.46-1.58-.93-3.24-.59-2.53.52-2.36,3.82-2.27,5.6.02.29.03.55.03.74l-.08,6.05c0,.57.05,1.33.13,2.21.34,4.17.16,6.33-.54,6.43-.61.08-1.05.01-1.3-.21-.66-.59-.58-2.46-.54-3.45,0-.19.02-.37.02-.53.04-1.79-.01-3.61-.06-5.36l-.04-1.59c-.02-.88-.07-2.08-.13-3.45-.2-4.85-.5-12.18.02-15.28.1-.88.09-1.73.07-2.55,0-.32-.01-.65-.01-.97.01-2.13-.04-4.25-.09-5.85,0-.25.03-.63.07-1.03.14-1.35.31-3.02-.67-4.13-.35-.4-1.01-.87-2.12-.89h-.02c-1.27,0-2.3,1.22-2.97,2.03l-.15.18c-1.01,1.17-1.39,2.94-1.77,4.65-.75,3.41-1.28,4.52-2.96,4.41-.09,0-.13-.01-.13-.01-.34-.24-.78-1.89-.71-3.99.05-1.54.5-3.11,1.33-4.65,1.65-3.09,4.57-5.84,7.43-7.02,1.61-.66,3.36-.92,5.5-1.09,3.63-.3,6.88.19,10.21,1.55l.16.07s.08.03.12.05c1.12.37,3.17,1.24,3.91,2.01,1.42,1.48,2.34,2.49,3.26,4.11,1.24,2.17,1.87,5.3,1.53,7.6Z" fill="#fff"/><path d="m100.75,77.21s0,0,0,0c.4.18.81.31,1.25.4.43.09.88.13,1.32.13.85,0,1.71-.16,2.54-.46.88-.32,1.87-.69,2.67-1.77.54-.73.94-1.65,1.19-2.72.17-.76.12-1.49.07-2.13l-.03-.47c-.04-.65-.08-1.46-.41-2.19-.58-1.29-1.77-2.28-2.69-2.78-.09-.05-.17-.1-.26-.15-.41-.24-.92-.53-1.6-.62-.65-.08-1.41-.15-2.16.04-2.49.65-4.49,1.41-5.79,4.62-.03.08-.06.17-.07.26-.07.42-.27,1.79.01,2.74.24,1.57.85,2.8,1.83,3.66.57.5,1.26,1.06,2.13,1.44Zm-1.52-7.29c.78-1.87,1.68-2.38,4.04-3,.31-.08.79-.03,1.2.02.17.02.39.15.66.3.11.06.21.12.32.18.68.37,1.34,1.03,1.6,1.6.14.31.17.82.2,1.31l.03.52c.04.51.08.98-.01,1.37-.17.74-.43,1.35-.77,1.8-.33.45-.72.61-1.51.9-.83.31-1.7.39-2.5.23-.26-.05-.5-.13-.73-.23-.55-.24-1.04-.64-1.48-1.03-.54-.48-.88-1.21-1.02-2.24-.01-.07-.04-.19-.07-.26-.07-.2-.05-.89.04-1.47Z" fill="#fff"/><path d="m62.77,101.52c1.2-.32,2.11-1.13,2.62-2.33.81-1.92.9-4.21.24-6.26-.65-2.03-1.5-3.77-2.61-5.31-.77-1.08-1.84-2.47-3.24-3.63-1.16-.96-2.44-2.01-3.97-2.71,0,0,0,0,0,0-.1-.06-2.53-1.43-7.85-1.65-.71-.04-1.92.06-1.99.07l-.24.03c-.19.02-.4.05-.6.08-.13.02-.47.05-.86.09-.87.09-1.51.15-1.66.2-.04,0-.76.07-2.71.61-.4.01-.8.09-1.23.26-.26.1-.51.22-.76.33-.03,0-.06.02-.09.03-.02,0-.04.03-.06.04-1.52.69-2.88,1.56-4.05,2.61-.95.86-2.31,2.2-3.23,3.93-.25.47-.5.9-.76,1.33-.71,1.2-1.38,2.33-1.69,3.88-.42,2.05-.32,4.05.29,5.79.11.3.26.68.55.94,1.04.92,2.57,1.28,3.9.92,1.11-.3,1.91-1.05,2.25-2.11.24-.74.42-1.51.58-2.24.26-1.15.5-2.24,1-3.27.75-1.57,1.9-2.96,3.41-4.16h0c-.05.4-.1.73-.17,1.07-.33,1.68-.67,3.36-1.01,5.03-.07.34-.15.67-.24,1.01-.12.42-.24.83-.36,1.24-.24.82-.49,1.67-.68,2.53-.77,3.48-1.66,7.61-2.5,11.8-.04.22-.09.43-.14.65-.24,1.08-.49,2.2-.13,3.4.02.07.06.13.11.18.91.86,2.02,1.06,3.09,1.24.1.02.21.04.31.05.03.08.07.16.07.2l.04.9c.06,1.15.11,2.35.12,3.51.03,3.25.02,6.45,0,8.88,0,1.82,1.18,2.92,2.29,3.81.4.32,1.01.38,1.45.37,1.59-.03,3.1-1.32,3.52-2.99.21-.83.25-1.66.28-2.47.02-.43-.17-.81-.12-1.24.21-1.9.27-3.94.2-6.6,0-.33-.02-.66-.04-1-.04-1.1-.06-2.27.1-3.32,0-.01.01-.03.02-.04l.75.05v.13c0,.3,0,.57,0,.84,0,.2-.03.39-.06.59-.05.4-.1.82-.04,1.25.19,1.26.11,2.47.03,3.74l-.05.83c-.04.77.01,1.53.06,2.27.05.77.11,1.49.06,2.23-.08,1.24-.06,2.85.73,4.34.22.41.32.67.58.83.76.47,1.56.7,2.35.7,1.17,0,2.28-.5,3.11-1.47.94-1.1.93-2.46.92-3.76,0-.23,0-.47,0-.7.02-1.18.1-2.38.18-3.54.05-.7.09-1.4.13-2.1.02-.48.07-.96.11-1.44.13-1.46.26-2.97-.1-4.49,0-.04.04-.15.06-.23,0-.01,0-.03.01-.04.16-.05.31-.1.46-.16.45-.16.88-.31,1.29-.33,1.11-.05,1.8-.59,2.16-1.71.02-.06.02-.12.02-.19l-.06-.47c-.05-.37-.1-.74-.16-1.11-.05-.3-.09-.6-.14-.91-.11-.74-.22-1.51-.41-2.26-.69-2.72-1.21-5.54-1.72-8.26l-.11-.57c-.38-2.04-.81-4.11-1.22-6.1l-.32-1.55c-.19-.94-.4-1.87-.61-2.88l-.11-.49s.03.03.05.04c.3.27.6.54.89.82.31.29.62.58.94.86,1.29,1.13,2.08,2.54,2.43,4.31.2,1.04.41,2.11.75,3.15.49,1.54,2.09,2.47,3.56,2.08Zm-10.66-14.63c-.08.01-.16.03-.23.03-.18.01-.34.14-.38.32-.23.94-.21,1.82.08,2.76l.2.65c.22.73.46,1.48.62,2.22.27,1.27.52,2.55.76,3.84.12.63.24,1.25.36,1.88.03.13.07.25.11.38l.05.17c.08.26.17.53.25.79.19.58.38,1.13.45,1.69.17,1.29.41,2.61.74,4.03.44,1.95.84,3.95,1.23,5.88.15.77.31,1.54.47,2.3-.23.63-.59.88-1.26.83-.33-.02-.65.03-.96.09-.12.02-.23.04-.35.06-1.31.18-1.63.55-1.59,1.89.01.48,0,.96,0,1.44,0,.52-.02,1.04,0,1.56.05,1.63-.01,3.28-.19,5.05-.14,1.42-.13,2.87-.11,4.27,0,.6.01,1.2,0,1.8,0,1.08-.45,1.71-1.5,1.83-.18.02-.37.01-.52,0h-.2c-.38,0-.86-1.56-.92-2.47-.06-.94-.03-1.93,0-2.88.02-.67.04-1.34.03-2-.01-.91-.03-1.81-.05-2.72-.05-2.24-.09-3.46-.04-5.74,0-.2-.02-.41-.04-.64l-.03-.31c-.02-.21-.18-.74-.39-.76-.14,0-.26-.02-.39-.03-.27-.03-.53-.05-.8-.02-.36.04-.84-.06-1.2.01-.17.03-.34.07-.51.09-1.36.23-1.76-.05-1.82,1.4-.04,1.2-.03,2.41-.01,3.59,0,.52.01,1.04.02,1.56v2.24c.02,1.97.04,3.94.02,5.91,0,.87-.11,1.57-.55,2.11-.09.03-.18.05-.27.08-.27.08-.53.16-.78.21-.46.08-.77-.11-.93-.54-.18-.49-.28-.9-.3-1.26-.04-.56-.09-1.12-.14-1.68-.14-1.64-.28-3.34-.3-5.01-.02-1.65-.08-3.33-.14-4.96-.03-.94-.07-1.88-.09-2.82-.01-.38-.07-.85-.42-1.15-.37-.31-.89-.28-1.3-.23-.62.09-1.21.05-1.84-.11-.06-.38-.01-.73.1-1.19l.31-1.27c.54-2.24,1.1-4.56,1.59-6.86.27-1.28.58-2.55.88-3.82.38-1.57.76-3.2,1.08-4.81.17-.87.43-1.75.68-2.59.16-.55.33-1.1.47-1.66.13-.49.19-.98.25-1.47l.04-.32c.02-.18.03-.37.04-.56.01-.27.02-.53.09-.75.26-.84.05-1.77-.51-2.26-.27-.23-.85-.56-1.73-.14-2.09.99-3.51,2.07-4.59,3.47-.44.58-.75,1.23-1.04,1.85l-.11.22c-.68,1.44-1.39,3.19-1.47,5.23,0,.25-.22.59-.33.77-.04.06-.13.14-.18.17l-.21-.04c-.57-.1-1.15-.19-1.61-.44-.35-.19-.52-.62-.56-1.36-.02-.36.06-.73.15-1.11.07-.3.13-.6.16-.92.13-1.74.74-3.28,1.53-5.11.2-.47.51-.97.97-1.57.37-.48.79-.94,1.26-1.35.29-.25.56-.51.84-.77.88-.83,1.71-1.61,2.8-2.06.49-.2.97-.42,1.44-.65.19-.06,4.44-1.42,7.86-1.24,3.4.19,4.83.45,6.96,1.34,1.32.75,3.66,2.24,3.91,2.45.74.63,1.34,1.44,1.93,2.26.79,1.09,1.61,2.21,2.23,3.42,1.96,3.81,1.95,5.78,1.6,6.77-.22.62-.64,1.06-1.29,1.33-.02,0-.08.01-.12.02-.02,0-.04,0-.05,0-.72-.38-1.13-.96-1.24-1.76-.04-.26-.08-.52-.13-.79-.1-.56-.19-1.09-.2-1.62-.07-3.77-4.13-7.03-7.86-8.46-.26-.1-.53-.06-.76-.02Z" fill="#fff"/><path d="m45.1,77.5c.87.28,1.83.34,2.45.34.35,0,.6-.02.64-.02l.47-.11c1.55-.34,3.16-.7,4.16-2.09.16-.22.29-.46.41-.71.73-1.59.87-3.75.39-5.93-.5-2.29-3.67-4.48-5.82-4.59-1.97-.11-3.44.3-4.61,1.3-.45.38-.87.82-1.26,1.24l-.27.28c-1.56,1.63-2.02,4.94-.94,6.81,1,1.74,2.39,2.85,4.38,3.49Zm-2.37-5.48c.04-.81.16-1.66.37-2.54.42-1.75,2.18-2.37,3.76-2.37.08,0,.15,0,.23,0,.64.02,1.31.13,1.95.31,1.12.31,1.84,1.04,2.19,2.24.11.38.22.77.29,1.16.35,2.05-.94,4.1-2.87,4.58-.53.13-1.15.06-1.76,0l-.21-.02c-1.43-.15-2.61-.9-3.62-2.3-.21-.29-.34-.72-.33-1.06Z" fill="#fff"/></svg>